<svg xmlns="http://www.w3.org/2000/svg" xmlns:svg="http://www.w3.org/2000/svg" xmlns:xlink="http://www.w3.org/1999/xlink" width="250" height="225" viewBox="136 25 250 225" preserveAspectRatio="xMidYMid meet" id="Port-img-accent-light-wobg.svg">
	<g id="freepik--Floor--inject-2">
		<path d="M472 460.67 C472 460.81 377.1 460.93 260.06 460.93 C143.02 460.93 48.06 460.81 48.06 460.67 C48.06 460.53 142.94 460.41 260.06 460.41 C377.18 460.41 472 460.52 472 460.67 Z" id="Path" style="fill:#263238;"/>
	</g>
	<g id="freepik--Character--inject-2">
		<path d="M179.7 261.42 C179.63 261.29 179.57 261.16 179.53 261.02 C179.42 260.73 179.27 260.34 179.09 259.84 C178.7 258.84 178.15 257.25 177.48 255.25 C176.81 253.25 176.02 250.77 175.3 247.85 C174.45 244.55 173.94 241.17 173.76 237.76 C173.55 233.61 174.1 229.46 175.39 225.51 C176.12 223.31 177.16 221.22 178.48 219.32 C179.9 217.32 181.56 215.5 183.4 213.88 C185.24 212.18 187.22 210.56 189.12 208.78 C191.06 206.98 192.78 204.97 194.26 202.78 C197.28 198.07 199.4 192.85 200.51 187.37 C201.65 181.89 202.32 176.32 202.51 170.72 C202.78 165.3 202.88 160.05 203.26 155.06 C203.56 150.34 204.28 145.66 205.4 141.06 C205.93 138.98 206.59 136.93 207.4 134.94 C208.16 133.1 209.05 131.32 210.06 129.61 C211.77 126.64 213.91 123.95 216.41 121.61 C218.3 119.85 220.42 118.35 222.71 117.17 C224.17 116.45 225.7 115.89 227.28 115.48 L228.51 115.21 L228.94 115.13 C228.81 115.19 228.67 115.23 228.53 115.26 L227.3 115.58 C225.75 116.03 224.24 116.63 222.8 117.36 C220.54 118.56 218.46 120.06 216.61 121.82 C214.15 124.17 212.05 126.86 210.37 129.82 C209.39 131.52 208.52 133.29 207.77 135.11 C206.96 137.09 206.3 139.12 205.77 141.19 C204.67 145.79 203.97 150.47 203.69 155.19 C203.32 160.19 203.23 165.4 202.97 170.84 C202.78 176.46 202.12 182.06 200.97 187.57 C199.84 193.06 197.71 198.29 194.68 203 C193.18 205.23 191.43 207.28 189.46 209.11 C187.54 210.91 185.56 212.53 183.72 214.2 C181.9 215.79 180.27 217.59 178.85 219.55 C177.57 221.42 176.56 223.47 175.85 225.62 C174.56 229.52 173.99 233.62 174.18 237.72 C174.33 241.09 174.82 244.44 175.63 247.72 C176.32 250.63 177.08 253.1 177.72 255.11 C178.36 257.12 178.88 258.65 179.24 259.73 C179.4 260.24 179.53 260.64 179.63 260.94 L179.7 261.42 Z" id="Path 1" style="fill:#263238;"/>
		<path d="M295.46 108.13 C304.82 106.25 314 113.47 318.05 122.13 C322.1 130.79 322.44 140.62 323.63 150.13 C328.29 187.13 346.85 220.95 368.95 250.93 C381.34 267.74 395.5 284.93 397.49 305.76 C397.9 310 397.67 314.6 395.15 318.04 C392.63 321.48 387.15 322.92 384.01 320.04 L286.2 313.8 L295.46 108.13 Z" id="Path 2" style="fill:#263238;"/>
		<path d="M274.37 105.21 C261.2 94.28 238.82 97.75 226.5 108.57 C214.18 119.39 208 135.82 206 152.11 C204.43 165.11 205.26 178.25 204.28 191.29 C203.3 204.33 200.23 217.74 192.03 227.92 C182.63 239.59 166.87 246.68 162.3 260.92 C159.78 268.76 161.3 277.29 163.3 285.28 C164.9 291.76 167.37 298.86 173.3 301.87 C178.3 304.42 184.3 303.28 189.82 302.08 Q222.52 294.96 255.17 287.71 C258.53 286.96 262.11 286.09 264.45 283.56 C267.07 280.73 267.45 276.56 267.72 272.73 C271.55 215.38 273.72 162.65 274.39 105.18" id="Path 3" style="fill:#263238;"/>
		<path d="M308.49 125.91 L308.56 135.16 L312.7 273.16 C312.92 289.23 301.84 302.71 284.64 302.82 L284.64 302.82 C267.27 302.94 252.79 289.89 252.29 273.66 C251.77 256.66 250.91 238.72 250.91 238.72 C250.91 238.72 228.91 235.72 223.54 207.18 C220.88 193.01 220.96 169.65 221.63 150.54 C221.92 142.3 225.55 134.54 231.7 129.04 C237.85 123.55 245.97 120.8 254.19 121.44 L308.49 125.91 Z" id="Path 4" style="fill:#FFBE9D;"/>
		<path d="M227 168.27 C227.47 168.74 230.19 166.6 234.14 166.51 C238.09 166.42 241.04 168.3 241.46 167.81 C241.66 167.59 241.17 166.74 239.89 165.81 C238.14 164.67 236.09 164.1 234.01 164.18 C231.96 164.23 229.98 164.93 228.35 166.18 C227.19 167.19 226.8 168.06 227 168.27 Z" id="Path 5" style="fill:#263238;"/>
		<path d="M270 166.86 C270.04 168.85 271.65 170.44 273.64 170.46 C274.59 170.51 275.51 170.17 276.21 169.53 C276.9 168.89 277.31 168 277.34 167.05 C277.3 165.06 275.69 163.46 273.7 163.44 C272.75 163.39 271.83 163.73 271.13 164.37 C270.43 165.01 270.03 165.91 270 166.86 Z" id="Path 6" style="fill:#263238;"/>
		<path d="M265.88 162.25 C266.35 162.71 269.07 160.58 273.02 160.48 C276.97 160.38 279.92 162.28 280.34 161.78 C280.54 161.56 280.06 160.71 278.77 159.78 C277.02 158.64 274.97 158.07 272.89 158.15 C270.84 158.2 268.85 158.9 267.22 160.15 C266 161.16 265.65 162 265.88 162.25 Z" id="Path 7" style="fill:#263238;"/>
		<path d="M252.35 191.94 C252.35 191.71 249.89 191.36 245.9 190.94 C244.9 190.86 243.9 190.69 243.74 190 C243.58 189.31 243.88 188.18 244.33 187 C245.21 184.54 246.14 182 247.1 179.24 C250.94 168.19 253.69 159.11 253.25 158.96 C252.81 158.81 249.33 167.65 245.49 178.7 Q244.09 182.78 242.84 186.5 C242.49 187.66 241.84 188.98 242.43 190.5 C242.75 191.21 243.38 191.74 244.13 191.93 C244.69 192.06 245.27 192.12 245.85 192.12 C249.86 192.21 252.34 192.16 252.35 191.94 Z" id="Path 8" style="fill:#263238;"/>
		<path d="M250.91 238.76 C264.38 238.58 277.53 234.68 288.91 227.47 C288.91 227.47 280.15 247.39 251.43 245.47 L250.91 238.76 Z" id="Path 9" style="fill:#EB996E;"/>
		<path d="M254.28 201.41 C255.75 199.44 258.14 198.38 260.59 198.59 C262.35 198.7 264 199.52 265.14 200.87 C266.26 202.19 266.44 204.06 265.59 205.57 C264.59 207.1 262.35 207.51 260.45 207.03 C258.56 206.42 256.82 205.44 255.31 204.15 C254.85 203.85 254.46 203.46 254.15 203.01 C253.85 202.57 253.85 201.98 254.15 201.54" id="Path 10" style="fill:#EB996E;"/>
		<path d="M264.05 194.35 C263.41 194.35 263.52 198.62 259.93 201.76 C256.34 204.9 251.77 204.56 251.75 205.16 C251.7 205.43 252.75 205.96 254.75 205.96 C257.26 205.93 259.69 205.01 261.59 203.37 C263.41 201.79 264.55 199.56 264.77 197.16 C264.85 195.36 264.34 194.32 264.05 194.35 Z" id="Path 11" style="fill:#263238;"/>
		<path d="M267.24 148.22 C267.66 149.28 271.59 148.66 276.24 149.09 C280.89 149.52 284.67 150.68 285.24 149.7 C285.5 149.23 284.82 148.24 283.24 147.24 C279.08 144.77 274.02 144.35 269.52 146.11 C267.89 146.84 267.06 147.71 267.24 148.22 Z" id="Path 12" style="fill:#263238;"/>
		<path d="M227.59 160.94 C228.31 161.81 231 160.81 234.28 160.67 C237.56 160.53 240.33 161.11 240.95 160.15 C241.21 159.69 240.75 158.8 239.52 157.99 C237.87 156.99 235.96 156.53 234.04 156.67 C232.11 156.77 230.27 157.47 228.76 158.67 C227.62 159.57 227.27 160.51 227.59 160.94 Z" id="Path 13" style="fill:#263238;"/>
		<path d="M248.14 152.6 C246.36 150.94 245.91 148.6 245.48 146.35 C243.61 148.77 242.59 151.75 242.58 154.81 C232.77 153.77 222.87 154.01 213.13 155.53 C208.43 141.32 214.24 124.8 225.65 115.12 C237.06 105.44 254.59 101 269.34 103.5 C274.13 103.61 281.07 108.67 281.07 108.67 C281.07 108.67 287.87 106.07 293.23 106.43 C301.08 106.96 307.72 110.56 311.91 117.22 C316.1 123.88 317.19 132.03 317.31 139.9 C317.47 150.78 315.94 161.63 312.8 172.05 L312.8 172.05 C301.24 169.44 294.93 162.99 289.12 152.66 C285.34 145.94 282.12 133.45 280.04 126.48 C280.04 126.48 275.41 128.17 270.69 134.2 C270.69 134.2 262.19 144.37 265.47 152.2 L248.14 152.6 Z" id="Path 14" style="fill:#263238;"/>
		<path d="M307.81 170.32 C309.71 168.8 314.42 168.23 316.52 169.47 C318.58 170.82 320.07 172.88 320.7 175.26 C321.96 179.11 321.17 183.34 318.61 186.48 C315.97 189.48 311.18 190.48 307.81 188.39" id="Path 15" style="fill:#FFBE9D;"/>
		<path d="M310.87 183.81 C311.75 183.89 312.64 183.81 313.49 183.57 C314.39 183.27 315.18 182.71 315.77 181.98 C316.46 181.06 316.79 179.92 316.69 178.78 C316.61 177.64 316.1 176.57 315.27 175.78 C314.57 175.15 313.7 174.73 312.77 174.57 C311.89 174.47 311.01 174.53 310.15 174.74 C310.34 174.58 310.57 174.46 310.81 174.4 C311.45 174.19 312.14 174.12 312.81 174.2 C313.83 174.32 314.8 174.74 315.57 175.42 C317.52 177.22 317.76 180.21 316.12 182.29 C315.46 183.08 314.57 183.65 313.58 183.93 C312.93 184.12 312.25 184.16 311.58 184.05 C311.33 184.03 311.08 183.95 310.87 183.81 Z" id="Path 16" style="fill:#EB996E;"/>
		<path d="M229.37 155.63 C229.37 155.55 229.37 155.48 229.37 155.4 L229.3 154.7 C229.24 154.09 229.16 153.19 229.08 152.02 C228.92 149.7 228.74 146.32 228.83 142.14 C228.92 137.23 229.59 132.36 230.83 127.61 C232.36 121.76 235.25 116.36 239.26 111.83 C241.34 109.49 243.79 107.51 246.51 105.96 C249.05 104.53 251.82 103.54 254.69 103.04 C259.57 102.3 264.55 102.64 269.28 104.04 C272.46 104.93 275.56 106.1 278.53 107.54 C279.58 108.05 280.39 108.46 280.93 108.76 L281.54 109.09 C281.61 109.12 281.68 109.17 281.74 109.22 L281.52 109.14 L280.88 108.85 C280.33 108.58 279.51 108.2 278.45 107.72 C275.46 106.37 272.36 105.26 269.19 104.4 C264.51 103.06 259.59 102.76 254.78 103.5 C251.97 104 249.26 104.98 246.78 106.39 C244.11 107.92 241.71 109.88 239.66 112.17 C235.71 116.64 232.85 121.97 231.32 127.73 C230.08 132.44 229.38 137.27 229.26 142.14 C229.12 146.3 229.26 149.67 229.34 152 C229.34 153.13 229.43 154 229.46 154.68 C229.46 154.97 229.46 155.19 229.46 155.38 C229.46 155.57 229.38 155.63 229.37 155.63 Z" id="Path 17" style="fill:#455A64;"/>
		<path d="M252.68 152.78 C252.62 152.58 252.58 152.38 252.57 152.17 C252.51 151.71 252.43 151.17 252.34 150.39 C252.16 148.85 251.91 146.61 251.74 143.84 C251.51 140.58 251.55 137.31 251.87 134.06 C252.26 130.06 253.35 126.16 255.1 122.54 C256.02 120.67 257.18 118.92 258.54 117.34 C259.82 115.88 261.29 114.59 262.9 113.51 C265.66 111.71 268.7 110.39 271.9 109.62 C274.03 109.08 276.21 108.7 278.4 108.51 C279.17 108.44 279.77 108.41 280.18 108.4 C280.39 108.37 280.6 108.37 280.81 108.4 C280.61 108.46 280.4 108.49 280.19 108.5 L278.42 108.71 C276.25 109 274.11 109.43 272 110 C268.87 110.82 265.9 112.15 263.21 113.94 C259.95 116.18 257.33 119.24 255.6 122.8 C253.88 126.37 252.79 130.21 252.39 134.15 C252.05 137.37 251.97 140.62 252.15 143.85 C252.27 146.62 252.47 148.85 252.58 150.4 C252.64 151.13 252.68 151.72 252.71 152.19 C252.73 152.39 252.72 152.59 252.68 152.78 Z" id="Path 18" style="fill:#455A64;"/>
		<path d="M328.32 173.12 C328.38 172 328.23 170.88 327.9 169.81 C326.77 166.95 324.64 164.6 321.9 163.19 C318.58 161.14 313.9 160.55 308.9 159.26 C306.24 158.64 303.72 157.52 301.47 155.97 C299.14 154.19 297.17 151.98 295.66 149.47 C294.16 146.99 292.82 144.42 291.66 141.76 C290.5 139.2 289.47 136.69 288.6 134.26 C287.04 129.96 285.79 125.56 284.84 121.09 C284.19 118.08 283.69 115.03 283.35 111.97 C283.22 110.89 283.17 110.05 283.12 109.48 C283.1 109.19 283.1 108.89 283.12 108.6 C283.19 108.88 283.24 109.17 283.27 109.46 C283.34 110.03 283.43 110.87 283.6 111.95 C283.89 114.1 284.38 117.22 285.24 121.01 C286.21 125.45 287.46 129.82 289 134.1 C289.88 136.51 290.91 139.01 292.07 141.55 C293.23 144.18 294.57 146.73 296.07 149.19 C297.55 151.65 299.47 153.81 301.75 155.56 C303.94 157.08 306.4 158.18 309 158.8 C311.48 159.47 313.89 159.92 316.11 160.52 C318.21 161.01 320.23 161.8 322.11 162.87 C325.51 164.87 327.52 167.62 328.11 169.75 C328.26 170.22 328.36 170.69 328.41 171.18 C328.43 171.54 328.43 171.89 328.41 172.25 C328.4 172.54 328.37 172.83 328.32 173.12 Z" id="Path 19" style="fill:#455A64;"/>
		<path d="M385.86 284 C385.86 284 386.18 283.67 386.74 283 C387.55 282.06 388.24 281.02 388.79 279.9 C390.77 275.74 391.26 271.03 390.17 266.55 C388.97 260.87 385.6 254.67 381.17 248.46 C376.17 241.79 370.62 235.55 364.57 229.81 C358.25 223.57 352.09 217.74 347.01 211.93 C342.41 206.86 338.38 201.29 335.01 195.33 C332.77 191.3 331.03 187.01 329.85 182.55 C329.66 181.76 329.47 181.06 329.34 180.44 C329.21 179.82 329.14 179.31 329.06 178.88 C328.98 178.45 328.95 178.16 328.91 177.88 C328.89 177.77 328.89 177.66 328.91 177.55 C328.96 177.65 328.99 177.76 329 177.87 C329.05 178.11 329.12 178.42 329.21 178.87 C329.3 179.32 329.4 179.82 329.53 180.42 C329.66 181.02 329.88 181.72 330.08 182.51 C331.34 186.92 333.11 191.17 335.37 195.16 C338.76 201.06 342.79 206.58 347.37 211.62 C352.45 217.39 358.61 223.2 364.94 229.45 C371 235.21 376.56 241.48 381.56 248.19 C386.03 254.45 389.39 260.71 390.56 266.48 C391.13 269.07 391.22 271.73 390.83 274.35 C390.55 276.32 389.93 278.23 389 280 C388.43 281.12 387.7 282.15 386.84 283.07 C386.54 283.41 386.21 283.72 385.86 284 Z" id="Path 20" style="fill:#263238;"/>
		<path d="M296.87 106.63 C291.63 102.29 289.03 95.53 290 88.8 C291.12 82.11 295.43 76.38 301.55 73.46 C306.92 70.9 313.15 70.86 318.55 73.36 C323.94 75.95 327.66 81.08 328.45 87 C329.12 92.94 326.42 98.76 321.45 102.09 C319.04 103.62 316.26 104.41 313.59 105.44 C310.92 106.47 308.26 107.8 306.54 110.07 C304.82 112.34 304.34 115.77 306.1 118.01" id="Path 21" style="fill:#263238;"/>
		<path d="M299.43 77.91 C299.52 77.73 299.62 77.56 299.75 77.4 C299.88 77.2 300.04 77.01 300.2 76.83 C300.41 76.57 300.64 76.34 300.89 76.12 C302.46 74.68 304.41 73.71 306.51 73.34 C309.65 72.72 312.9 73.42 315.51 75.26 C318.7 77.53 320.83 80.99 321.43 84.86 C321.95 88.72 321.15 92.65 319.16 96 C317.55 98.71 315.34 101 312.69 102.7 C310.93 103.86 309.02 104.78 307.02 105.43 C306.32 105.67 305.76 105.82 305.38 105.91 C305.19 105.97 304.99 106 304.79 106.02 C304.97 105.93 305.16 105.86 305.35 105.81 C305.72 105.69 306.26 105.51 306.95 105.24 C308.9 104.52 310.76 103.57 312.48 102.4 C315.05 100.7 317.19 98.42 318.74 95.76 C320.65 92.5 321.42 88.7 320.93 84.96 C320.35 81.23 318.3 77.88 315.24 75.67 C313.91 74.72 312.4 74.07 310.8 73.75 C309.4 73.5 307.97 73.5 306.57 73.75 C304.52 74.06 302.59 74.94 301 76.27 C300.45 76.79 299.92 77.34 299.43 77.91 Z" id="Path 22" style="fill:#455A64;"/>
		<path d="M311.58 107.3 C310.46 106.05 308.83 105.4 307.16 105.52 C305.51 105.52 303.89 105.95 302.25 106.06 C299.54 106.25 296.83 105.62 294.48 104.26 C294.21 103.96 293.82 103.79 293.41 103.81 C293.01 103.83 292.64 104.04 292.4 104.37 C292.05 105.16 292.21 106.08 292.82 106.7 C293.43 107.29 294.18 107.71 295.01 107.9 C298.6 108.96 302.61 108.49 305.94 110.18 C307.52 110.99 309.24 112.28 310.85 111.55 C312.46 110.82 312.57 108.62 311.58 107.3 Z" id="Path 23" style="fill:#FEB262;"/>
		<path d="M294.76 107.81 C294.76 107.81 294.76 107.81 294.76 107.94 L294.76 108.08 L294.62 107.93 C294.31 107.41 294.23 106.78 294.39 106.19 C294.47 105.74 294.69 105.33 295 105 C295.26 104.75 295.5 104.71 295.53 104.77 C295.26 105.26 295.04 105.77 294.89 106.31 C294.8 106.83 294.77 107.35 294.78 107.88 L294.62 107.88 C294.7 107.81 294.74 107.79 294.76 107.81 Z" id="Path 24" style="fill:#263238;"/>
		<path d="M298.34 108.51 C298.34 108.51 298.12 108.45 297.96 108.19 C297.57 107.47 297.69 106.57 298.26 105.98 C298.48 105.76 298.67 105.71 298.71 105.76 C298.75 105.81 298.35 106.36 298.27 107.1 C298.19 107.84 298.46 108.43 298.34 108.51 Z" id="Path 25" style="fill:#263238;"/>
		<path d="M302.09 109.33 C301.96 109.25 302.3 108.53 302.33 107.58 C302.36 106.63 302.09 105.89 302.22 105.82 C302.35 105.75 302.9 106.5 302.85 107.6 C302.8 108.7 302.19 109.42 302.09 109.33 Z" id="Path 26" style="fill:#263238;"/>
		<path d="M306.4 110.88 C306.8 110.03 307.01 109.11 307.02 108.17 C306.85 107.25 306.48 106.37 305.93 105.61 C305.93 105.61 306.3 105.7 306.68 106.12 C307.18 106.67 307.48 107.38 307.54 108.12 C307.61 108.87 307.44 109.61 307.04 110.25 C306.74 110.73 306.45 110.93 306.4 110.88 Z" id="Path 27" style="fill:#263238;"/>
		<path d="M309.18 111.46 C309.13 111.39 309.42 111.16 309.76 110.69 C310.68 109.49 310.82 107.87 310.14 106.53 C309.89 106.02 309.65 105.73 309.71 105.67 C309.77 105.61 310.1 105.83 310.46 106.35 C310.93 107.05 311.14 107.88 311.07 108.72 C311 109.55 310.65 110.33 310.07 110.93 C309.59 111.38 309.21 111.51 309.18 111.46 Z" id="Path 28" style="fill:#263238;"/>
		<path d="M311 114.14 C311.04 114.25 311.07 114.37 311.08 114.49 C311.12 114.82 311.12 115.16 311.08 115.49 C310.89 116.77 310.27 117.95 309.34 118.85 C308.71 119.49 307.96 120 307.13 120.35 C306.17 120.73 305.16 120.95 304.13 121 C301.81 121.05 299.5 120.62 297.36 119.72 C293.43 118.2 289.97 115.66 287.36 112.35 C286.58 111.36 285.88 110.3 285.29 109.18 C285.06 108.78 284.87 108.35 284.73 107.91 C285.62 109.37 286.59 110.78 287.65 112.12 C290.29 115.29 293.69 117.74 297.53 119.24 C299.61 120.11 301.84 120.55 304.09 120.52 C305.92 120.51 307.69 119.82 309.04 118.59 C309.95 117.76 310.58 116.66 310.84 115.46 C311 114.64 310.94 114.14 311 114.14 Z" id="Path 29" style="fill:#455A64;"/>
		<path d="M410.78 360.69 C409.58 349.14 403.05 338.84 395.78 329.75 C388.51 320.66 380.34 312.21 374.78 301.99 C371.06 295.14 368.64 287.66 365.37 280.58 C362.1 273.5 357.78 266.58 351.32 262.23 C344.86 257.88 327.52 251.55 313.86 253.94 L312 257.15 C291.63 264.56 269.77 265.55 251.7 256.57 C241.76 260.26 199.89 270.62 192.52 283.06 C190.77 286.06 191.27 293.16 193.14 302.55 L160 282.85 L130.54 359.1 L130.36 359.69 C124.41 379.76 135.37 400.94 155.18 407.69 L155.18 407.69 C176.27 409.45 197.16 402.51 213 388.47 L218.51 383.59 C222.79 395.21 225.84 403.01 225.84 403.01 L206.84 460.67 L353.5 460.67 L331.77 399.67 L338.77 381.62 C339.67 383.22 340.63 384.82 341.65 386.45 C348.22 396.97 363.34 408.39 375.74 408.23 C382.98 408.14 391.5 403.32 396.98 398.59 C407.08 389.92 412.15 373.93 410.78 360.69 Z" id="Path 30" style="fill:#FEB262;"/>
		<path d="M160 282.85 L160.22 282.96 L160.86 283.32 L163.31 284.73 L172.47 290.12 L204.18 308.94 L204.37 309.06 L204.27 309.26 C201.09 316.16 199.08 324.26 197.71 332.84 C196.07 343.17 195.16 353.15 193.2 362.05 C192.32 366.27 191.11 370.42 189.6 374.46 C188.27 377.97 186.59 381.35 184.6 384.53 C181.74 389.18 178.01 393.22 173.6 396.44 C172.4 397.3 171.13 398.08 169.82 398.76 L168.82 399.27 C168.71 399.34 168.59 399.39 168.46 399.42 L168.8 399.22 L169.8 398.66 C171.09 397.95 172.32 397.15 173.51 396.28 C177.84 393.02 181.52 388.97 184.34 384.34 C186.3 381.17 187.96 377.82 189.28 374.34 C190.71 370.31 191.85 366.19 192.69 362 C194.61 353.13 195.5 343.17 197.15 332.8 C198.52 324.24 200.55 316.06 203.78 309.1 L203.87 309.42 L172.26 290.42 L163.18 284.91 L160.77 283.43 L160.15 283.04 C160 282.91 159.94 282.86 160 282.85 Z" id="Path 31" style="fill:#263238;"/>
		<path d="M338.78 381.63 C338.78 381.63 338.67 381.48 338.52 381.16 L337.87 379.77 L335.58 374.62 C333.68 370.26 330.99 364.26 328.24 357.52 C326.93 354.34 325.97 351.03 325.37 347.65 C324.79 344.87 324.92 342 325.73 339.28 C326.4 337.5 327.42 335.87 328.73 334.48 C329.19 333.99 329.54 333.61 329.8 333.37 C329.92 333.24 330.06 333.12 330.21 333.02 C330.21 333.02 329.73 333.59 328.89 334.61 C327.67 336.02 326.73 337.64 326.1 339.4 C325.35 342.07 325.28 344.88 325.87 347.58 C326.49 350.92 327.45 354.19 328.74 357.33 C331.48 364.04 334.12 370.08 335.94 374.48 C336.82 376.63 337.54 378.39 338.08 379.69 C338.3 380.27 338.49 380.74 338.64 381.12 C338.7 381.29 338.75 381.46 338.78 381.63 Z" id="Path 32" style="fill:#263238;"/>
		<path d="M398.66 362 C398.54 361.8 398.43 361.59 398.35 361.37 C398.16 360.91 397.9 360.31 397.58 359.55 L394.79 352.84 C392.43 347.17 389.15 339.35 385.38 330.78 C381.61 322.21 378.04 314.49 375.56 308.9 C374.23 306.17 372.18 304.45 370.51 304.18 C369.87 304.08 369.21 304.08 368.57 304.18 C368.34 304.22 368.11 304.25 367.88 304.27 L368.05 304.2 C368.16 304.2 368.33 304.12 368.55 304.08 C369.21 303.94 369.88 303.91 370.55 304 C372.33 304.22 374.5 306 375.9 308.75 C378.48 314.33 382.12 321.99 385.9 330.59 C389.68 339.19 392.9 347.01 395.17 352.72 C396.31 355.57 397.17 357.89 397.81 359.5 C398.09 360.27 398.32 360.88 398.49 361.36 C398.56 361.57 398.62 361.78 398.66 362 Z" id="Path 33" style="fill:#263238;"/>
		<path d="M401 354.93 C400.91 354.93 400.56 353.69 399.79 351.73 C398.77 349.19 397.47 346.78 395.93 344.52 C394.37 342.27 392.56 340.2 390.55 338.35 C389 336.93 387.94 336.16 387.99 336.08 C388.28 336.2 388.55 336.36 388.79 336.55 C389.49 337.02 390.15 337.52 390.79 338.07 C392.9 339.87 394.78 341.94 396.36 344.22 C397.93 346.51 399.2 348.99 400.13 351.6 C400.41 352.39 400.65 353.19 400.84 354.01 C400.94 354.31 400.99 354.62 401 354.93 Z" id="Path 34" style="fill:#263238;"/>
		<path d="M312.13 390.14 C311.94 390.34 311.74 390.53 311.52 390.7 C311.11 391.06 310.52 391.59 309.71 392.24 C308.13 393.56 305.8 395.42 302.82 397.61 C295.11 403.38 286.66 408.09 277.69 411.61 C272.72 413.48 267.58 414.82 262.33 415.61 C258.05 416.27 253.71 416.48 249.38 416.25 C246.47 416.1 243.57 415.7 240.72 415.07 C239.72 414.87 238.94 414.62 238.41 414.49 C238.14 414.42 237.88 414.34 237.62 414.24 C237.9 414.26 238.17 414.31 238.44 414.38 C238.97 414.48 239.74 414.7 240.76 414.87 C243.61 415.42 246.49 415.76 249.39 415.87 C253.69 416.05 258.01 415.8 262.26 415.13 C267.46 414.31 272.57 412.97 277.5 411.13 C286.43 407.61 294.86 402.97 302.61 397.31 C305.61 395.17 307.96 393.31 309.61 392.08 L311.48 390.62 C311.68 390.44 311.9 390.28 312.13 390.14 Z" id="Path 35" style="fill:#263238;"/>
		<g opacity="0.3">
			<path d="M310 391.91 C297.61 398.17 284.87 404.52 271.07 405.98 C267.45 406.36 263.78 406.4 260.21 407.15 C256.64 407.9 253.1 409.47 250.83 412.32 C250.15 413.18 249.59 414.43 250.23 415.32 C250.78 415.89 251.54 416.22 252.34 416.21 C262.97 417.34 273.71 414.38 283.27 409.59 C292.83 404.8 301.37 398.27 309.85 391.76" id="Path 36" style="fill:#000000;"/>
		</g>
		<g opacity="0.3">
			<path d="M325.84 349.29 C326.84 357.98 324.73 364.63 324.53 373.37 C324.33 382.11 326.74 392.53 331.77 399.68 L338.77 381.68 C338.77 381.68 336.43 375.57 334.98 372.55 C331.46 365.29 328.49 357.78 326.09 350.08" id="Path 37" style="fill:#000000;"/>
		</g>
		<g opacity="0.3">
			<path d="M168.33 399.42 C173.66 401.65 179.88 400.24 184.47 396.74 C192.05 390.97 196.77 382.08 199.17 372.86 C201.57 363.64 201.85 354 202 344.51 C202.15 335.02 202.13 325.39 204 316.05 C204.18 315.17 204.15 313.93 203.27 313.75 C202.55 313.6 201.95 314.35 201.68 315.04 C198.1 324.31 196.39 339.92 195.11 351.04 C193.76 362.79 192.17 366.9 188.44 376.69 C184.71 386.48 178.63 394.19 168.37 399.38" id="Path 38" style="fill:#000000;"/>
		</g>
		<path d="M369.59 307.43 C369.71 307.62 369.81 307.82 369.87 308.04 C370.09 308.64 370.24 309.27 370.33 309.9 C370.58 312.24 370.44 314.61 369.92 316.9 C369.64 318.36 369.27 319.9 368.83 321.63 C368.37 323.44 367.81 325.21 367.14 326.95 C365.59 330.96 363.37 334.68 360.58 337.95 C357.82 341.23 354.41 343.91 350.58 345.83 C347.42 347.35 343.97 348.19 340.46 348.28 C338.1 348.34 335.75 347.99 333.51 347.23 C332.9 347.04 332.31 346.79 331.74 346.51 C331.54 346.42 331.34 346.32 331.15 346.2 C331.37 346.25 331.58 346.32 331.78 346.41 C332.36 346.65 332.96 346.86 333.57 347.04 C335.8 347.71 338.12 348 340.45 347.91 C343.89 347.77 347.27 346.91 350.37 345.4 C354.14 343.49 357.48 340.84 360.21 337.61 C362.96 334.4 365.15 330.75 366.71 326.82 C367.39 325.11 367.97 323.35 368.43 321.57 C368.89 319.9 369.28 318.33 369.58 316.88 C370.13 314.62 370.32 312.29 370.15 309.97 C370.03 309.11 369.85 308.26 369.59 307.43 Z" id="Path 39" style="fill:#263238;"/>
		<path d="M356.69 266.16 L356.21 266.28 C355.74 266.37 355.28 266.51 354.83 266.67 C353.08 267.29 351.5 268.29 350.2 269.61 C348.15 271.71 346.48 274.14 345.27 276.81 C343.76 279.87 342.54 283.62 340.41 287.41 C339.33 289.43 337.91 291.25 336.22 292.79 C334.33 294.43 332.02 295.51 329.55 295.9 C326.93 296.27 324.26 296.27 321.64 295.9 C318.95 295.6 316.2 295.13 313.36 295.01 C311.93 294.93 310.5 294.99 309.08 295.17 C307.64 295.39 306.24 295.82 304.93 296.44 C302.26 297.86 299.95 299.87 298.16 302.31 C296.23 304.72 294.49 307.38 292.45 309.88 C291.42 311.15 290.29 312.33 289.06 313.41 C287.79 314.47 286.38 315.37 284.87 316.06 C281.86 317.44 278.57 318.09 275.26 317.98 C272.05 317.87 268.91 317.09 266.02 315.69 C263.22 314.34 260.79 312.33 258.94 309.84 C257.3 307.39 255.91 304.79 254.77 302.08 C253.72 299.53 252.37 297.11 250.77 294.86 C249.97 293.81 249.04 292.88 247.98 292.1 L247.18 291.56 L246.34 291.11 C245.78 290.82 245.2 290.57 244.61 290.36 C242.28 289.67 239.86 289.3 237.42 289.28 C235.07 289.19 232.8 289.2 230.64 288.99 C228.57 288.84 226.55 288.35 224.64 287.54 C222.94 286.78 221.44 285.62 220.29 284.16 C218.44 281.81 217.41 278.93 217.35 275.94 C217.29 274.07 217.66 272.21 218.44 270.5 C218.64 270.06 218.87 269.63 219.14 269.23 L219.42 268.82 C219.42 268.82 219.35 268.98 219.19 269.26 C218.94 269.67 218.72 270.1 218.54 270.55 C217.8 272.24 217.46 274.08 217.54 275.93 C217.65 278.87 218.7 281.69 220.54 283.98 C221.68 285.4 223.14 286.51 224.8 287.24 C226.68 288.02 228.68 288.49 230.71 288.62 C232.85 288.82 235.12 288.8 237.48 288.88 C239.95 288.89 242.42 289.25 244.79 289.95 C245.4 290.16 246 290.42 246.58 290.72 L247.45 291.18 L248.28 291.74 C249.37 292.54 250.34 293.5 251.17 294.57 C252.82 296.84 254.19 299.29 255.28 301.88 C256.41 304.56 257.79 307.13 259.41 309.55 C261.22 311.97 263.59 313.92 266.32 315.23 C269.13 316.6 272.2 317.36 275.32 317.46 C278.55 317.57 281.75 316.93 284.69 315.59 C286.16 314.92 287.52 314.05 288.76 313.01 C289.96 311.95 291.08 310.8 292.09 309.56 C294.09 307.08 295.84 304.43 297.8 301.99 C299.64 299.49 302.01 297.44 304.75 295.99 C306.11 295.35 307.56 294.91 309.05 294.68 C310.5 294.51 311.96 294.46 313.42 294.53 C316.3 294.66 319.06 295.14 321.73 295.45 C324.31 295.83 326.93 295.85 329.52 295.5 C331.92 295.12 334.16 294.09 336 292.5 C337.66 291 339.06 289.22 340.13 287.25 C342.26 283.51 343.5 279.78 345.05 276.7 C346.3 274.02 348.01 271.58 350.1 269.49 C351.43 268.17 353.05 267.17 354.83 266.59 C355.29 266.43 355.76 266.32 356.24 266.25 L356.69 266.16 Z" id="Path 40" style="fill:#FAFAFA;"/>
		<path d="M327.76 355.12 L327.43 355.3 C327.11 355.47 326.77 355.61 326.43 355.72 C325.04 356.15 323.54 356.04 322.22 355.42 C320.22 354.38 318.3 353.2 316.47 351.87 C314.28 350.39 312 348.42 309.19 346.72 C307.72 345.84 306.14 345.17 304.49 344.72 C302.69 344.27 300.83 344.09 298.97 344.2 C294.86 344.54 290.86 345.74 287.24 347.72 C283.23 349.89 279.36 352.32 275.66 355 C271.72 357.66 267.49 360.37 262.61 361.9 C257.83 363.4 252.71 363.38 247.94 361.85 C243.55 360.44 239.37 358.46 235.51 355.95 C231.78 353.65 228.35 351.3 224.98 349.37 C221.9 347.51 218.6 346.04 215.17 344.97 C212.33 344.11 209.36 343.77 206.4 343.97 C204.17 344.14 201.99 344.72 199.96 345.67 C198.24 346.51 196.67 347.63 195.31 348.97 C195.38 348.87 195.47 348.77 195.56 348.69 C195.73 348.51 195.99 348.24 196.34 347.9 C197.41 346.94 198.59 346.13 199.87 345.49 C201.91 344.49 204.11 343.88 206.37 343.68 C209.37 343.44 212.38 343.75 215.27 344.59 C218.75 345.66 222.08 347.14 225.2 349 C228.59 350.93 232.04 353.27 235.76 355.55 C239.6 358.02 243.74 359.98 248.09 361.37 C252.76 362.86 257.78 362.86 262.45 361.37 C267.24 359.87 271.45 357.2 275.37 354.55 C279.08 351.86 282.97 349.42 287 347.25 C290.68 345.26 294.74 344.06 298.92 343.73 C300.82 343.63 302.72 343.82 304.56 344.29 C306.25 344.77 307.86 345.48 309.35 346.4 C312.19 348.15 314.45 350.14 316.6 351.63 C318.4 352.96 320.3 354.17 322.27 355.24 C323.54 355.86 325 356 326.37 355.62 C327.3 355.35 327.74 355.08 327.76 355.12 Z" id="Path 41" style="fill:#FAFAFA;"/>
		<path d="M270.61 412.29 C270.45 412.19 270.3 412.07 270.16 411.94 L268.92 410.85 L264.42 406.85 C259.53 402.38 254.11 398.54 248.27 395.42 C245.02 393.8 241.56 392.6 238 391.88 C235.09 391.29 232.12 391.1 229.16 391.32 C227.16 391.47 225.19 391.84 223.27 392.43 C221.92 392.85 221.19 393.15 221.17 393.1 C221.33 393 221.5 392.92 221.68 392.85 C222.18 392.62 222.69 392.42 223.21 392.24 C225.12 391.57 227.1 391.13 229.12 390.95 C232.13 390.67 235.16 390.83 238.12 391.41 C241.73 392.13 245.22 393.34 248.5 395 C254.38 398.13 259.82 402.04 264.66 406.62 C266.55 408.33 268.04 409.76 269.06 410.75 L270.23 411.91 C270.37 412.02 270.5 412.15 270.61 412.29 Z" id="Path 42" style="fill:#FAFAFA;"/>
		<path d="M340.9 424.1 C340.38 423.12 339.75 422.2 339.03 421.35 C336.88 419.18 334.06 417.8 331.03 417.44 C328.96 417.13 326.85 417.15 324.79 417.5 C322.43 417.95 320.13 418.69 317.95 419.7 C315.62 420.7 313.25 421.99 310.77 423.26 C308.23 424.63 305.58 425.78 302.84 426.7 C301.44 427.16 300.02 427.52 298.58 427.8 C297.17 428.05 295.76 428.22 294.33 428.3 C293.64 428.36 292.94 428.39 292.25 428.37 C291.56 428.37 290.88 428.37 290.25 428.37 C288.9 428.25 287.58 428.18 286.32 427.94 C281.8 427.24 277.45 425.72 273.49 423.44 C270.82 421.92 268.37 420.06 266.19 417.89 C265.4 417.14 264.9 416.46 264.51 416.04 C264.31 415.83 264.13 415.6 263.97 415.36 C264.19 415.55 264.4 415.75 264.59 415.97 C265 416.36 265.53 417.02 266.33 417.74 C268.54 419.83 271.01 421.64 273.67 423.12 C277.61 425.33 281.92 426.8 286.39 427.46 C287.64 427.69 288.95 427.76 290.27 427.87 C290.94 427.87 291.61 427.87 292.27 427.87 C292.95 427.88 293.64 427.86 294.32 427.79 C295.72 427.71 297.12 427.54 298.5 427.29 C299.92 427.02 301.32 426.65 302.7 426.2 C305.41 425.29 308.04 424.15 310.56 422.8 C313.04 421.54 315.42 420.28 317.78 419.26 C320.01 418.24 322.36 417.5 324.78 417.07 C326.89 416.73 329.04 416.73 331.15 417.07 C334.24 417.47 337.1 418.93 339.23 421.21 L339.72 421.8 C339.86 421.98 339.98 422.17 340.09 422.37 C340.3 422.66 340.47 422.96 340.61 423.29 C340.72 423.55 340.82 423.82 340.9 424.1 Z" id="Path 43" style="fill:#FAFAFA;"/>
		<path d="M347.48 441.08 C347.36 441.09 347.23 441.09 347.11 441.08 L346.04 440.94 C344.67 440.77 343.29 440.7 341.91 440.73 C339.73 440.8 337.55 441.08 335.42 441.56 C332.6 442.21 329.85 443.11 327.19 444.26 C323.96 445.64 320.81 447.2 317.76 448.94 C314.46 450.79 310.96 452.85 307.17 454.83 C303.22 456.95 299.05 458.63 294.73 459.83 C290.04 461.05 285.15 461.27 280.37 460.47 C275.63 459.63 271.01 458.19 266.63 456.19 C262.36 454.32 258.39 452.19 254.63 450.27 C247.13 446.27 240.04 443.18 233.76 441.74 C230.95 441.06 228.07 440.67 225.18 440.59 C223 440.55 220.82 440.75 218.68 441.18 C217.9 441.33 217.12 441.53 216.36 441.76 C215.79 441.91 215.24 442.1 214.7 442.32 L213.7 442.69 L213.35 442.8 L213.68 442.64 L214.68 442.22 C215.22 441.98 215.77 441.77 216.34 441.61 C217.1 441.36 217.88 441.15 218.66 440.98 C220.81 440.52 223.01 440.29 225.21 440.3 C228.13 440.35 231.03 440.72 233.87 441.38 C240.2 442.79 247.35 445.84 254.87 449.85 C258.67 451.8 262.64 453.85 266.87 455.73 C271.22 457.71 275.8 459.13 280.5 459.96 C285.21 460.74 290.02 460.52 294.64 459.33 C298.93 458.14 303.08 456.48 307 454.37 C310.78 452.42 314.28 450.37 317.61 448.54 C320.68 446.81 323.85 445.26 327.1 443.89 C329.79 442.76 332.57 441.88 335.41 441.24 C337.56 440.78 339.76 440.53 341.96 440.5 C343.35 440.49 344.74 440.59 346.11 440.8 L347.17 441 L347.48 441.08 Z" id="Path 44" style="fill:#FAFAFA;"/>
		<path d="M389.85 339.49 C389.7 339.71 389.54 339.92 389.36 340.11 C388.86 340.67 388.39 341.25 387.97 341.87 C386.41 344.15 385.16 346.62 384.24 349.22 C382.97 352.47 381.88 356.52 380.02 360.79 C379.05 363.03 377.76 365.12 376.2 367 C374.49 369.02 372.38 370.66 370 371.82 C365.37 373.98 360.24 374.82 355.17 374.26 C351.06 373.79 347.02 372.79 343.17 371.26 C339.88 370.01 337.3 368.81 335.53 367.98 L333.53 366.98 C333.29 366.88 333.06 366.75 332.84 366.6 C333.09 366.67 333.34 366.77 333.58 366.88 L335.65 367.77 C337.45 368.54 340.05 369.69 343.33 370.89 C347.16 372.34 351.15 373.3 355.22 373.73 C360.2 374.26 365.23 373.42 369.77 371.3 C372.09 370.17 374.15 368.58 375.82 366.62 C377.36 364.77 378.63 362.72 379.59 360.52 C381.46 356.3 382.59 352.26 383.91 349 C384.87 346.39 386.18 343.92 387.82 341.67 C388.26 341.06 388.75 340.48 389.29 339.95 C389.47 339.78 389.65 339.63 389.85 339.49 Z" id="Path 45" style="fill:#FAFAFA;"/>
		<path d="M400.85 355 C400.76 355 400.67 354.64 400.35 354.15 C399.49 352.85 397.97 352.15 396.43 352.35 C395.85 352.43 395.5 352.6 395.43 352.53 C395.36 352.46 395.69 352.18 396.32 351.99 C398.05 351.55 399.86 352.38 400.65 353.99 C400.94 354.53 400.9 355 400.85 355 Z" id="Path 46" style="fill:#FAFAFA;"/>
		<path d="M398.82 348.41 C399.08 348.47 399.32 348.56 399.56 348.67 C400.25 348.99 400.89 349.4 401.48 349.88 C403.59 351.76 405 354.3 405.48 357.08 C405.8 358.98 405.84 360.92 405.6 362.83 C405.32 365.01 404.89 367.16 404.31 369.28 C403.13 374.16 401.7 378.98 400 383.71 C398.32 388.47 395.88 392.93 392.78 396.92 C390.19 400.14 386.99 402.82 383.36 404.79 C381.95 405.52 380.48 406.12 378.97 406.58 C377.82 406.91 376.65 407.15 375.47 407.3 L374.17 407.42 L373.17 407.42 L372.39 407.42 C372.65 407.37 372.91 407.34 373.17 407.35 L374.12 407.29 L375.4 407.13 C376.56 406.95 377.71 406.69 378.84 406.34 C380.33 405.85 381.76 405.23 383.14 404.49 C386.7 402.5 389.83 399.84 392.37 396.65 C395.42 392.69 397.81 388.27 399.47 383.56 C401.14 378.85 402.58 374.06 403.76 369.2 C404.34 367.1 404.79 364.97 405.09 362.81 C405.35 360.94 405.33 359.04 405.04 357.17 C404.61 354.45 403.3 351.96 401.3 350.07 C400.55 349.41 399.72 348.85 398.82 348.41 Z" id="Path 47" style="fill:#FAFAFA;"/>
		<path d="M393 327 C391.49 326.82 389.97 326.82 388.46 327 C386.98 327.34 385.54 327.85 384.18 328.54 C386.56 326.33 390.01 325.73 393 327 Z" id="Path 48" style="fill:#FAFAFA;"/>
		<path d="M183.63 383.85 C182.86 384.22 182.02 384.45 181.17 384.53 C178.82 384.73 176.46 384.22 174.41 383.06 C172.98 382.3 171.67 381.35 170.5 380.23 C169.17 378.94 168 377.49 167.01 375.93 C164.84 372.69 163.06 368.79 160.52 365.15 C158.09 361.76 155.04 358.86 151.52 356.62 C148.64 354.79 145.5 353.4 142.21 352.5 C139.99 351.89 137.71 351.52 135.41 351.38 C133.78 351.29 132.87 351.31 132.87 351.26 C133.09 351.22 133.31 351.21 133.53 351.21 C134.16 351.18 134.79 351.18 135.42 351.21 C137.75 351.28 140.06 351.62 142.31 352.21 C145.66 353.07 148.85 354.44 151.78 356.28 C155.38 358.53 158.5 361.47 160.98 364.92 C163.56 368.62 165.33 372.53 167.45 375.74 C168.42 377.28 169.56 378.7 170.84 379.99 C171.97 381.1 173.24 382.04 174.63 382.8 C176.61 383.97 178.89 384.52 181.19 384.39 C182.01 384.27 182.83 384.09 183.63 383.85 Z" id="Path 49" style="fill:#FAFAFA;"/>
		<path d="M197 331.22 C196.82 331.25 196.63 331.25 196.45 331.22 L194.86 331.04 C194.18 330.96 193.34 330.85 192.37 330.65 C191.4 330.45 190.3 330.29 189.1 329.97 C187.9 329.65 186.58 329.35 185.19 328.9 C183.8 328.45 182.34 327.95 180.8 327.39 C174.15 324.84 167.95 321.22 162.45 316.69 C161.2 315.62 160 314.63 158.97 313.6 C157.94 312.57 156.97 311.6 156.12 310.72 C155.27 309.84 154.55 308.96 153.91 308.21 C153.36 307.57 152.84 306.9 152.35 306.21 L151.41 304.92 C151.29 304.78 151.19 304.62 151.11 304.45 C151.25 304.57 151.38 304.71 151.49 304.86 L152.49 306.08 C152.92 306.62 153.49 307.27 154.12 308 C154.75 308.73 155.49 309.58 156.37 310.44 C157.25 311.3 158.17 312.29 159.25 313.26 C160.33 314.23 161.5 315.26 162.74 316.26 C168.24 320.73 174.4 324.32 181 326.91 C182.52 327.48 184 328.05 185.35 328.46 C186.7 328.87 188.03 329.27 189.22 329.58 C190.41 329.89 191.5 330.12 192.46 330.33 C193.42 330.54 194.24 330.7 194.93 330.81 L196.49 331.09 C196.66 331.11 196.84 331.16 197 331.22 Z" id="Path 50" style="fill:#FAFAFA;"/>
		<path d="M198.14 398.8 C198.04 398.8 198.22 397.41 198.03 395.2 C197.92 393.91 197.71 392.62 197.4 391.36 C197.01 389.82 196.49 388.32 195.86 386.87 C195.2 385.42 194.42 384.04 193.53 382.72 C192.79 381.65 191.96 380.64 191.04 379.72 C189.46 378.17 188.24 377.48 188.3 377.39 C188.61 377.5 188.9 377.65 189.17 377.84 C189.52 378.03 189.85 378.24 190.17 378.48 C190.58 378.79 190.97 379.12 191.34 379.48 C192.32 380.39 193.2 381.39 193.98 382.48 C194.91 383.8 195.71 385.21 196.38 386.69 C197.03 388.17 197.55 389.71 197.92 391.28 C198.21 392.57 198.39 393.88 198.45 395.2 C198.45 395.77 198.45 396.28 198.45 396.72 C198.45 397.1 198.42 397.49 198.36 397.87 C198.33 398.19 198.26 398.5 198.14 398.8 Z" id="Path 51" style="fill:#FAFAFA;"/>
		<path d="M304.89 369.28 C304.72 369.31 304.55 369.31 304.38 369.28 L302.92 369.22 L301.86 369.16 C301.48 369.16 301.07 369.06 300.62 369 C299.61 368.88 298.61 368.71 297.62 368.49 L295.88 368.11 C295.28 367.97 294.66 367.75 294.02 367.57 C292.73 367.22 291.4 366.68 290.02 366.14 C283.96 363.64 278.52 359.84 274.09 355 C273.13 353.94 272.23 352.84 271.39 351.69 C271 351.15 270.6 350.64 270.26 350.12 L269.31 348.61 C268.68 347.66 268.25 346.72 267.82 345.93 C267.62 345.52 267.42 345.16 267.26 344.8 C267.1 344.44 266.97 344.13 266.85 343.8 L266.3 342.44 C266.22 342.29 266.17 342.13 266.15 341.96 C266.25 342.1 266.33 342.25 266.4 342.4 L267.03 343.71 L267.48 344.71 C267.65 345.05 267.87 345.41 268.08 345.8 C268.53 346.58 268.98 347.5 269.63 348.42 L270.63 349.9 C270.97 350.41 271.39 350.9 271.78 351.44 C272.55 352.52 273.51 353.56 274.48 354.69 C276.69 357.05 279.12 359.19 281.75 361.07 C284.41 362.91 287.23 364.48 290.19 365.78 C291.58 366.32 292.88 366.88 294.19 367.24 C294.82 367.43 295.43 367.65 296.02 367.8 L297.74 368.21 C298.83 368.51 299.85 368.63 300.74 368.79 C301.18 368.86 301.59 368.95 301.97 368.99 L303.02 369.1 L304.47 369.25 C304.61 369.25 304.75 369.26 304.89 369.28 Z" id="Path 52" style="fill:#263238;"/>
		<path d="M214.32 297.2 C214.31 297.29 214.29 297.38 214.26 297.47 L214.04 298.25 C213.83 298.97 213.54 299.96 213.16 301.25 C212.97 301.9 212.75 302.61 212.52 303.39 C212.29 304.17 212.15 305.06 211.94 305.99 C211.73 306.92 211.51 307.92 211.27 308.99 C211.03 310.06 210.92 311.19 210.72 312.37 C210.52 313.55 210.35 314.8 210.16 316.1 C209.97 317.4 209.93 318.76 209.8 320.17 C209.74 320.87 209.68 321.59 209.62 322.31 C209.56 323.03 209.57 323.78 209.54 324.53 C209.54 326.04 209.46 327.53 209.41 329.17 C209.48 336.06 209.98 342.94 210.92 349.76 C211.94 356.57 213.3 363.33 215 370 C215.83 373.07 216.56 376 217.4 378.7 C217.81 380.05 218.2 381.36 218.58 382.62 C218.96 383.88 219.38 385.06 219.76 386.2 C220.48 388.49 221.23 390.54 221.87 392.33 C222.51 394.12 223.07 395.68 223.56 396.93 C224.05 398.18 224.39 399.13 224.66 399.83 L224.93 400.59 C224.97 400.67 224.99 400.77 225 400.86 C224.95 400.78 224.91 400.7 224.88 400.61 C224.79 400.42 224.69 400.17 224.56 399.87 C224.27 399.18 223.88 398.22 223.37 397.01 C222.86 395.8 222.25 394.23 221.6 392.43 C220.95 390.63 220.16 388.61 219.41 386.32 L218.19 382.74 C217.81 381.48 217.41 380.17 216.99 378.82 C216.12 376.12 215.38 373.19 214.53 370.12 C212.82 363.42 211.46 356.64 210.46 349.8 C209.52 342.95 209.02 336.05 208.98 329.14 C208.98 327.55 209.09 325.99 209.14 324.48 C209.14 323.73 209.14 322.98 209.22 322.25 C209.3 321.52 209.36 320.81 209.42 320.1 Q209.63 317.99 209.81 316.02 L210.41 312.28 C210.62 311.09 210.74 309.95 211 308.9 L211.71 305.9 C211.93 304.97 212.14 304.11 212.33 303.31 L213.02 301.17 C213.43 299.92 213.76 298.94 214.02 298.23 L214.29 297.47 C214.29 297.38 214.3 297.29 214.32 297.2 Z" id="Path 53" style="fill:#263238;"/>
		<path d="M265.42 272.52 C265.45 268.74 266.78 265.08 269.19 262.17 C269.32 262.26 267.93 264.33 266.9 267.17 C265.87 270.01 265.58 272.54 265.42 272.52 Z" id="Path 54" style="fill:#263238;"/>
		<path d="M249.74 266.39 C250.93 263.1 253.34 260.4 256.48 258.86 C256.57 259 254.62 260.23 252.77 262.32 C250.92 264.41 249.88 266.47 249.74 266.39 Z" id="Path 55" style="fill:#263238;"/>
		<path d="M283.64 274 C283.41 272.28 283.27 270.55 283.23 268.82 C283.01 267.1 282.89 265.37 282.85 263.64 C283.39 265.3 283.7 267.03 283.75 268.78 C283.97 270.52 283.94 272.28 283.64 274 Z" id="Path 56" style="fill:#263238;"/>
		<path d="M304.63 271.69 C304.85 267.75 303.55 263.88 301 260.88 C301 260.83 301.59 261.23 302.3 262.06 C303.21 263.16 303.9 264.42 304.36 265.77 C304.83 267.13 305.05 268.56 305 270 C305 270.58 304.87 271.16 304.63 271.69 Z" id="Path 57" style="fill:#263238;"/>
		<g opacity="0.3">
			<path d="M312 257.15 L306.66 258.93 C309.72 276.93 313.66 298.56 316.76 316.56 C317.66 321.83 318.64 327.31 321.76 331.64 C325.07 336.2 330.58 339.19 332.61 344.44 C326.21 315.94 319.64 285.33 312 257.15 Z" id="Path 58" style="fill:#000000;"/>
		</g>
		<path d="M215.51 200.33 C215.51 200.33 215.67 195.65 215.58 191.49 C215.56 190.66 215.88 189.86 216.47 189.26 C217.05 188.67 217.85 188.34 218.68 188.34 L253 188.34 L258.71 176.5 C259.82 174.77 261.73 173.73 263.78 173.74 L279.51 173.74 C281.44 173.74 283.26 174.66 284.39 176.23 L290.45 184.6 L301.61 186.46 C303.62 186.8 305.13 188.49 305.22 190.53 L307.31 238.16 L215.51 238.16 L215.51 200.33 Z" id="Path 59" style="fill:#FEB262;"/>
		<rect x="264.75" y="176.18" width="12.56" height="5.94" id="Rectangle" style="fill:#E0E0E0;"/>
		<ellipse cx="269.42" cy="209.8" rx="20.05" ry="20.05" id="Ellipse" style="fill:#FEB262;"/>
		<ellipse cx="269.42" cy="209.8" rx="20.05" ry="20.05" id="Ellipse 1" opacity="0.6" style="fill:#000000;"/>
		<ellipse cx="269.42" cy="209.8" rx="16.05" ry="16.05" id="Ellipse 2" style="fill:#263238;"/>
		<path d="M291 209.8 C290.99 209.68 290.99 209.57 291 209.45 L290.92 208.45 C290.92 208.22 290.92 207.97 290.92 207.7 C290.92 207.43 290.83 207.12 290.78 206.8 C290.68 206.05 290.52 205.31 290.32 204.58 C289.81 202.57 289 200.66 287.92 198.89 C282.66 190.11 271.91 186.3 262.29 189.81 C261.34 190.15 260.41 190.56 259.51 191.03 C258.6 191.53 257.73 192.09 256.9 192.71 C256.05 193.34 255.25 194.03 254.49 194.76 C253.74 195.54 253.04 196.36 252.4 197.23 C251.09 199.02 250.08 201 249.4 203.1 C247.93 207.46 247.93 212.17 249.4 216.53 C250.08 218.64 251.09 220.62 252.4 222.4 C253.04 223.27 253.74 224.1 254.49 224.87 C255.25 225.61 256.05 226.29 256.9 226.92 C258.53 228.16 260.35 229.15 262.29 229.83 C271.91 233.32 282.65 229.51 287.92 220.74 C289 218.97 289.81 217.06 290.32 215.05 C290.52 214.32 290.68 213.59 290.78 212.84 C290.83 212.51 290.89 212.21 290.92 211.94 C290.95 211.67 290.92 211.41 290.92 211.19 C290.92 210.76 290.98 210.42 291 210.19 C290.99 210.07 290.99 209.96 291 209.84 C291.01 209.96 291.01 210.07 291 210.19 C291 210.45 291 210.78 291 211.19 C291 211.42 291 211.68 291 211.95 C291 212.22 290.92 212.53 290.88 212.86 C290.8 213.62 290.66 214.36 290.47 215.1 C289.99 217.14 289.2 219.09 288.12 220.89 C284.96 226.26 279.63 230.02 273.51 231.19 C269.69 231.92 265.74 231.6 262.08 230.28 C261.1 229.93 260.15 229.52 259.23 229.04 C258.3 228.53 257.4 227.96 256.55 227.32 C255.68 226.68 254.86 225.98 254.08 225.23 C253.31 224.44 252.59 223.59 251.94 222.7 C250.58 220.88 249.53 218.86 248.82 216.7 C247.31 212.24 247.31 207.4 248.82 202.94 C249.53 200.78 250.58 198.76 251.94 196.94 C253.22 195.16 254.78 193.6 256.56 192.32 C258.23 191.05 260.09 190.05 262.08 189.37 C265.74 188.05 269.69 187.73 273.51 188.45 C279.58 189.66 284.85 193.39 288 198.72 C289.07 200.52 289.87 202.47 290.35 204.51 C290.54 205.25 290.68 206 290.76 206.76 C290.76 207.08 290.86 207.39 290.88 207.66 C290.9 207.93 290.88 208.19 290.88 208.42 C290.88 208.85 290.88 209.19 290.88 209.42 C290.93 209.54 290.97 209.67 291 209.8 Z" id="Path 60" style="fill:#263238;"/>
		<path d="M263.73 220.9 C263.62 221.18 261.67 220.75 259.49 218.52 C258.23 217.21 257.27 215.64 256.65 213.93 C255.02 209.59 255.88 204.7 258.91 201.18 C260.07 199.78 261.52 198.64 263.15 197.84 C265.96 196.49 267.94 196.75 267.95 197.05 C267.96 197.35 266.27 197.87 264.08 199.42 C262.82 200.32 261.71 201.41 260.79 202.66 C258.53 205.67 257.83 209.58 258.93 213.18 C259.37 214.67 260.04 216.08 260.93 217.35 C262.44 219.56 263.94 220.55 263.73 220.9 Z" id="Path 61" style="fill:#E0E0E0;"/>
		<path d="M252.16 191 C251.77 191.25 251.35 191.46 250.91 191.62 C250.42 191.85 249.91 192.05 249.4 192.23 C248.81 192.45 248.13 192.71 247.4 192.92 C245.61 193.47 243.78 193.91 241.93 194.21 C239.66 194.57 237.37 194.77 235.07 194.81 C232.77 194.81 230.48 194.66 228.2 194.35 C226.34 194.08 224.5 193.69 222.7 193.17 C222 192.99 221.32 192.77 220.64 192.52 C220.12 192.36 219.62 192.17 219.12 191.95 C218.68 191.8 218.26 191.61 217.86 191.37 C218.32 191.46 218.76 191.59 219.19 191.76 C219.61 191.91 220.12 192.08 220.73 192.25 C221.34 192.42 222.02 192.65 222.8 192.82 C224.6 193.28 226.42 193.63 228.26 193.87 C232.77 194.46 237.35 194.42 241.85 193.74 C243.69 193.46 245.51 193.07 247.3 192.57 C248.07 192.38 248.75 192.14 249.35 191.95 C249.95 191.76 250.46 191.59 250.88 191.43 C251.29 191.25 251.72 191.1 252.16 191 Z" id="Path 62" style="fill:#263238;"/>
		<path d="M252.08 228 C252.17 228.26 252.24 228.52 252.27 228.79 C252.4 229.57 252.36 230.37 252.18 231.14 C251.9 232.37 251.3 233.51 250.44 234.43 C249.27 235.65 247.7 236.4 246.02 236.55 C244.18 236.8 242.18 236.55 240.02 236.68 C237.86 236.81 235.63 237.04 233.23 237.19 C230.7 237.44 228.15 237.27 225.67 236.7 C222.95 236.09 220.55 234.53 218.88 232.3 C218.1 231.12 217.59 229.79 217.37 228.4 C217.16 227.08 217.05 225.74 217.05 224.4 C217.05 221.79 216.95 219.27 216.9 216.87 C216.81 212.08 216.74 207.76 216.68 204.12 C216.62 200.48 216.6 197.6 216.57 195.52 L216.57 193.18 C216.54 192.91 216.54 192.63 216.57 192.36 C216.62 192.63 216.64 192.91 216.64 193.18 C216.64 193.76 216.7 194.54 216.74 195.51 C216.81 197.6 216.9 200.51 217.01 204.11 C217.12 207.71 217.22 212.11 217.35 216.86 C217.41 219.26 217.47 221.78 217.53 224.39 C217.59 227 217.74 229.76 219.28 232.01 C220.87 234.15 223.17 235.64 225.77 236.21 C228.19 236.78 230.69 236.95 233.17 236.72 C235.55 236.58 237.83 236.32 239.97 236.26 C242.11 236.2 244.11 236.42 245.89 236.2 C247.5 236.07 249.02 235.36 250.15 234.2 C251 233.33 251.6 232.25 251.9 231.07 C252.1 230.32 252.16 229.55 252.09 228.78 C252.07 228.52 252.07 228.26 252.08 228 Z" id="Path 63" style="fill:#263238;"/>
		<path d="M234.25 230.05 C234.1 230.05 233.99 223.21 233.99 214.77 C233.99 206.33 234.1 199.5 234.25 199.5 C234.4 199.5 234.51 206.34 234.51 214.77 C234.51 223.2 234.39 230.05 234.25 230.05 Z" id="Path 64" style="fill:#263238;"/>
		<path d="M227.48 230.05 C227.33 230.05 227.22 223.21 227.22 214.77 C227.22 206.33 227.33 199.5 227.48 199.5 C227.63 199.5 227.74 206.34 227.74 214.77 C227.74 223.2 227.62 230.05 227.48 230.05 Z" id="Path 65" style="fill:#263238;"/>
		<path d="M239.73 229.48 C239.58 229.48 239.47 222.73 239.47 214.42 C239.47 206.11 239.58 199.36 239.73 199.36 C239.88 199.36 239.99 206.1 239.99 214.42 C239.99 222.74 239.87 229.48 239.73 229.48 Z" id="Path 66" style="fill:#263238;"/>
		<path d="M304.91 194 C304.91 194 304.85 193.68 304.61 193.19 C304.23 192.51 303.65 191.98 302.94 191.66 C301.85 191.24 300.69 191.05 299.52 191.11 L295.15 190.99 C292.05 190.89 289.25 190.77 287.22 190.65 C286.12 190.65 285.02 190.55 283.94 190.36 C285.03 190.25 286.13 190.23 287.23 190.29 C289.23 190.29 292.07 190.37 295.17 190.47 L299.54 190.63 C300.76 190.6 301.98 190.84 303.1 191.33 C303.86 191.7 304.46 192.33 304.79 193.11 C305 193.68 304.94 194 304.91 194 Z" id="Path 67" style="fill:#263238;"/>
		<path d="M189.98 230.91 L165.64 286.66 L200.02 307.08 L210.31 244.66 L189.98 230.91 Z" id="Path 68" style="fill:#FFBE9D;"/>
		<path d="M189.85 205.55 L207.05 179.64 C209.02 176.7 212.77 175.54 216.05 176.85 L234.31 184.24 C234.31 184.24 234.07 189.92 229.11 189.16 C224.15 188.4 214 186.43 214 186.43 L209.44 191.94 L189.85 205.55 Z" id="Path 69" style="fill:#FFBE9D;"/>
		<path d="M234.58 213.79 L227.06 194.25 C226.14 191.85 223.72 190.38 221.17 190.66 L198.07 193.18 L189.85 205.55 C189.3 206.38 189.02 207.37 189.06 208.37 L190.4 241.31 L204.4 258.68 L210.5 244.68 L210.5 244.68 C214.65 242.74 216.85 238.13 215.73 233.68 L213.91 226.5 L221.01 224.08 C221.01 224.08 220.38 231.93 223.89 231.83 C227.4 231.73 229.2 218 229.2 218 C229.2 218 235.72 216.74 234.58 213.79 Z" id="Path 70" style="fill:#FFBE9D;"/>
		<path d="M213.92 226.5 C213.92 226.5 213.69 226.34 213.37 225.96 C212.9 225.42 212.58 224.76 212.46 224.05 C212.4 223.54 212.48 223.02 212.69 222.55 C212.94 222.01 213.32 221.56 213.81 221.22 C214.86 220.48 216.01 219.91 217.23 219.52 L217.31 219.52 L217.39 220.03 C214.75 220.03 212.39 219.96 210.63 219.9 C209.69 219.92 208.76 219.85 207.83 219.7 C208.76 219.55 209.69 219.49 210.63 219.53 C212.36 219.53 214.75 219.53 217.4 219.53 L219 219.53 L217.51 220.03 L217.43 220.03 C216.26 220.41 215.15 220.95 214.13 221.63 C213.3 222.14 212.82 223.06 212.86 224.03 C212.95 224.69 213.2 225.32 213.58 225.86 C213.8 226.25 214 226.48 213.92 226.5 Z" id="Path 71" style="fill:#EB996E;"/>
		<path d="M221 224.08 C221 224.08 221.39 223.82 222 223.26 C222.36 222.91 222.65 222.51 222.86 222.06 C223.12 221.45 223.27 220.81 223.31 220.15 C223.43 218.41 223.34 216.67 223.05 214.95 C222.88 213.94 222.66 212.94 222.39 211.95 C222.16 210.91 221.57 209.98 220.72 209.33 C219.77 208.83 218.71 208.62 217.64 208.7 L214.53 208.55 L209.26 208.27 L205.7 208.03 C205.26 208.02 204.83 207.97 204.4 207.87 C204.84 207.83 205.27 207.83 205.71 207.87 L209.27 207.94 L214.55 208.11 L217.66 208.23 C218.2 208.23 218.75 208.23 219.33 208.33 C219.94 208.38 220.52 208.6 221.02 208.95 C221.97 209.67 222.63 210.7 222.88 211.86 C223.15 212.87 223.36 213.9 223.52 214.93 C223.8 216.69 223.85 218.48 223.67 220.25 C223.61 220.94 223.42 221.62 223.12 222.25 C222.87 222.72 222.53 223.13 222.12 223.47 C221.87 223.68 221.59 223.86 221.3 224.01 C221.2 224.05 221.1 224.07 221 224.08 Z" id="Path 72" style="fill:#EB996E;"/>
		<path d="M204.62 201.25 C205.13 201.21 205.63 201.21 206.14 201.25 L210.27 201.32 L216.41 201.49 L220.04 201.61 C220.67 201.61 221.3 201.61 221.96 201.7 C222.66 201.74 223.34 201.93 223.96 202.27 C224.55 202.66 225.04 203.18 225.38 203.79 C225.73 204.36 226.01 204.93 226.3 205.5 C226.85 206.58 227.34 207.7 227.75 208.84 C228.48 210.77 228.95 212.79 229.16 214.84 C229.3 216.22 229.28 217.61 229.11 218.99 C229.07 219.37 229.01 219.74 228.93 220.11 C228.93 220.36 228.84 220.49 228.82 220.49 C228.99 218.62 228.99 216.75 228.82 214.88 C228.57 212.86 228.07 210.88 227.33 208.99 C226.91 207.87 226.42 206.78 225.88 205.71 C225.43 204.54 224.68 203.51 223.72 202.71 C222.56 202.23 221.3 202.03 220.05 202.11 L216.43 201.96 L210.3 201.68 L206.17 201.44 C205.65 201.43 205.13 201.36 204.62 201.25 Z" id="Path 73" style="fill:#EB996E;"/>
		<path d="M219.18 201.69 C219.09 199.95 219.36 198.21 219.96 196.58 C220.09 197.45 220.05 198.33 219.83 199.18 C219.78 200.05 219.56 200.9 219.18 201.69 Z" id="Path 74" style="fill:#EB996E;"/>
		<path d="M222.39 190.63 C222.09 190.74 221.78 190.81 221.46 190.85 C220.86 190.96 219.98 191.1 218.9 191.24 C216.72 191.54 213.71 191.8 210.41 192.24 C209.59 192.35 208.77 192.44 208.01 192.57 C207.28 192.7 206.55 192.87 205.84 193.09 C204.62 193.42 203.44 193.89 202.34 194.5 C201.35 195.12 200.52 195.96 199.89 196.94 C199.96 196.62 200.09 196.32 200.28 196.05 C200.77 195.31 201.4 194.68 202.14 194.19 C203.25 193.52 204.45 192.99 205.7 192.63 C206.43 192.4 207.17 192.21 207.92 192.07 C208.71 191.92 209.52 191.83 210.35 191.73 C213.67 191.31 216.68 191.11 218.86 190.91 C220.03 190.74 221.21 190.64 222.39 190.63 Z" id="Path 75" style="fill:#EB996E;"/>
		<path d="M213.08 182.73 C213.22 182.73 213.42 183.52 213.66 184.51 C213.9 185.5 214.1 186.31 213.96 186.36 C213.82 186.41 213.41 185.66 213.16 184.63 C212.91 183.6 212.94 182.74 213.08 182.73 Z" id="Path 76" style="fill:#EB996E;"/>
		<path d="M220.25 178.54 C220.63 178.61 221 178.72 221.35 178.87 C222.06 179.11 223.08 179.48 224.35 179.98 C226.91 180.98 230.5 182.45 234.66 184.24 L234.81 184.3 L234.81 184.46 C234.82 185.82 234.3 187.12 233.35 188.09 C232.3 189.09 230.86 189.58 229.42 189.43 C227.86 189.36 226.42 189 225.01 188.81 C223.6 188.62 222.22 188.37 220.91 188.14 C219.6 187.91 218.36 187.65 217.2 187.36 L213.96 186.62 L214.15 186.55 L210.52 190.87 C210.11 191.33 209.78 191.71 209.52 192.03 C209.41 192.17 209.28 192.3 209.14 192.41 C209.14 192.41 209.22 192.24 209.43 191.96 L210.36 190.73 L213.86 186.31 L213.93 186.22 L214.05 186.22 L217.31 186.91 C218.46 187.18 219.7 187.42 221 187.64 L225.09 188.29 C226.52 188.47 227.98 188.83 229.45 188.89 C230.75 189.03 232.05 188.6 233 187.71 C233.85 186.84 234.33 185.67 234.33 184.45 L234.48 184.67 C230.34 182.84 226.77 181.31 224.25 180.24 L221.25 179 C220.91 178.87 220.57 178.72 220.25 178.54 Z" id="Path 77" style="fill:#EB996E;"/>
		<path d="M370 309.43 L339 245.61 L306.53 194.84 C303.6 190.27 298.88 187.14 293.53 186.23 C285.53 184.88 274.12 183.35 269.74 184.69 C265.05 186.12 268.43 189.37 268.43 189.37 C268.43 189.37 273.65 190.44 280.43 191.7 C283.41 192.25 286.02 194.03 287.61 196.6 L289.17 199.11 C292.82 205 293.23 209.47 294.09 218.56 L294.09 223.46 C293.25 227.93 285.95 230.9 279.09 231.07 C275.16 231.17 271.25 231.58 267.38 232.28 L269 232.28 C264.18 231.98 259.44 233.62 255.84 236.85 C254.88 237.64 254.14 238.65 253.66 239.79 C253.19 240.96 253.35 242.28 254.09 243.3 C255.2 244.4 256.83 244.79 258.32 244.3 C259.77 243.8 261.17 243.19 262.53 242.49 C267.74 240.31 273.71 241.69 279.07 243.49 C284.43 245.29 289.93 247.44 295.54 246.75 C298.95 246.33 302.82 244.96 305.54 247.06 L308.78 250.12 C310.51 252.72 311.65 255.67 312.13 258.76 L312.13 258.76 L333.2 347.36 C340.76 348.59 348.56 347.69 357.39 340.76 C365.67 331.85 370.63 320.1 370 309.43 Z" id="Path 78" style="fill:#FFBE9D;"/>
		<path d="M299.48 205.26 C299.48 205.26 298.19 192.02 297.48 190.85 C296.77 189.68 282.55 183.59 283.79 181.65 C285.03 179.71 288.79 181.32 291.62 182.65 C294.45 183.98 301.92 187.27 303.69 189.29 C305.46 191.31 308.35 203.34 308.35 203.34 L299.48 205.26 Z" id="Path 79" style="fill:#FFBE9D;"/>
		<path d="M283.82 181.65 C283.82 181.65 283.93 181.71 284.12 181.87 L284.92 182.56 L287.92 185.26 L287.92 185.26 C289.76 186.26 292.11 187.5 294.82 189.02 L296.91 190.23 C297.09 190.34 297.27 190.44 297.45 190.57 C297.66 190.69 297.84 190.88 297.95 191.1 C298.15 191.51 298.29 191.94 298.37 192.39 C298.7 194.22 298.89 196.07 298.93 197.93 L298.93 197.87 C299.87 201.11 300.79 204.68 301.68 208.4 C303.87 217.73 305.55 226.32 305.63 232.63 C305.69 235.1 306.28 237.52 307.36 239.74 C307.81 240.53 308.33 241.27 308.92 241.95 L308.78 241.85 C308.65 241.74 308.52 241.61 308.4 241.48 C307.93 240.98 307.52 240.43 307.18 239.84 C306.01 237.62 305.36 235.17 305.27 232.66 C305.09 226.36 303.36 217.85 301.17 208.52 C300.29 204.81 299.38 201.24 298.45 198 L298.45 197.94 C298.42 196.11 298.25 194.29 297.94 192.49 C297.87 192.08 297.75 191.69 297.58 191.31 C297.46 191.01 297.04 190.83 296.7 190.6 L294.63 189.38 L287.81 185.5 L287.81 185.5 L284.87 182.71 L284.11 181.96 C284 181.87 283.9 181.77 283.82 181.65 Z" id="Path 80" style="fill:#EB996E;"/>
		<path d="M293.32 203.7 C293.38 204.11 293.4 204.52 293.37 204.93 C293.37 205.72 293.37 206.86 293.37 208.26 C293.4 209.9 293.57 211.53 293.88 213.14 C294.25 215.1 295.04 216.96 296.18 218.59 C297.44 220.15 298.81 221.62 300.28 222.99 C301.61 224.3 302.85 225.43 303.8 226.51 C304.25 226.99 304.58 227.58 304.75 228.22 C304.85 228.7 304.89 229.19 304.88 229.68 C304.93 230.09 304.93 230.49 304.88 230.9 C304.79 230.5 304.74 230.1 304.73 229.69 C304.7 229.22 304.63 228.75 304.52 228.29 C304.33 227.71 304 227.18 303.57 226.75 C302.57 225.75 301.35 224.63 300 223.34 C298.49 221.97 297.09 220.49 295.81 218.9 C294.63 217.2 293.83 215.27 293.46 213.24 C293.17 211.59 293.03 209.92 293.05 208.24 C293.05 206.82 293.13 205.68 293.2 204.89 C293.2 204.49 293.24 204.09 293.32 203.7 Z" id="Path 81" style="fill:#EB996E;"/>
		<path d="M270.65 237.57 C270.64 236.83 270.55 236.1 270.36 235.39 C269.95 234.26 269.07 233.7 269.15 233.57 C269.23 233.44 269.45 233.57 269.82 233.83 C270.77 234.55 271.23 235.76 270.99 236.93 C270.88 237.37 270.71 237.59 270.65 237.57 Z" id="Path 82" style="fill:#EB996E;"/>
		<path d="M294.05 225.62 C294.05 225.62 293.93 225.85 293.64 226.2 C293.22 226.69 292.76 227.15 292.26 227.57 C290.63 228.97 288.76 230.06 286.73 230.78 C284.7 231.5 282.56 231.83 280.41 231.78 C279.76 231.77 279.12 231.7 278.48 231.59 C278.24 231.57 278.01 231.5 277.79 231.4 C277.79 231.31 278.79 231.45 280.42 231.4 C284.62 231.31 288.68 229.87 292 227.29 C293.3 226.3 294 225.56 294.05 225.62 Z" id="Path 83" style="fill:#EB996E;"/>
		<path d="M297.61 207.5 C297.26 207.11 296.95 206.68 296.68 206.23 L294.28 202.66 L290.79 197.32 L288.74 194.16 C288.11 193 287.3 191.95 286.34 191.04 C285.24 190.34 283.93 190.04 282.64 190.19 C281.35 190.19 280.07 190.25 278.86 190.19 C276.72 190.07 274.6 189.77 272.52 189.29 C271.12 188.96 269.74 188.54 268.39 188.03 Q267.67 187.76 267.31 187.58 C267.06 187.47 266.94 187.41 266.95 187.39 C267.46 187.51 267.97 187.66 268.46 187.84 C269.46 188.14 270.83 188.56 272.6 188.93 C274.67 189.36 276.77 189.62 278.88 189.71 C280.08 189.76 281.32 189.71 282.63 189.71 C284.03 189.56 285.44 189.9 286.63 190.66 C287.64 191.6 288.49 192.7 289.14 193.91 C289.84 195.01 290.52 196.07 291.14 197.09 C292.41 199.09 293.56 200.92 294.54 202.49 L296.8 206.15 C297.11 206.58 297.38 207.03 297.61 207.5 Z" id="Path 84" style="fill:#EB996E;"/>
		<path d="M319.6 289 C319.6 289 319.53 288.81 319.43 288.41 C319.33 288.01 319.17 287.41 318.96 286.66 C318.56 285.1 317.96 282.82 317.22 279.86 C315.71 273.86 313.52 265.24 310.77 254.35 L310.77 254.35 C310.3 252.94 309.63 251.61 308.77 250.4 C307.86 249.13 306.68 248.08 305.33 247.3 L305.33 247.3 C304.84 246.95 304.29 246.67 303.72 246.48 C303.12 246.31 302.5 246.22 301.88 246.21 C300.58 246.23 299.28 246.37 298.01 246.63 C296.67 246.9 295.31 247.08 293.95 247.16 C292.54 247.21 291.12 247.11 289.73 246.88 C286.84 246.35 284 245.58 281.24 244.58 C278.36 243.52 275.39 242.68 272.38 242.09 C269.24 241.44 265.99 241.64 262.95 242.67 C261.43 243.21 260.03 244.18 258.35 244.67 C257.49 244.91 256.59 244.93 255.72 244.75 C254.81 244.57 254.01 244.01 253.53 243.22 C253.08 242.41 252.95 241.46 253.14 240.55 C253.33 239.66 253.74 238.83 254.33 238.14 C255.49 236.78 256.88 235.62 258.43 234.72 C261.59 232.84 265.24 231.96 268.91 232.19 L268.91 232.7 L267.29 232.7 L267.29 232.2 C268.72 232.02 270.29 231.67 271.79 231.5 C273.29 231.33 274.87 231.17 276.44 231.08 C278.01 230.99 279.58 231.01 281.12 230.83 C282.69 230.66 284.23 230.35 285.74 229.9 C287.27 229.46 288.73 228.82 290.09 228.01 C291.47 227.24 292.6 226.09 293.34 224.69 C293.5 224.34 293.62 223.97 293.71 223.6 L293.71 218.75 L293.6 217.52 L293.35 215.05 C293.11 211.58 292.48 208.15 291.45 204.82 C290.22 201.64 288.57 198.64 286.56 195.89 C285.53 194.6 284.2 193.57 282.69 192.89 C281.15 192.3 279.54 191.89 277.9 191.67 L268.22 189.8 L268.14 189.8 L268.09 189.75 C267.68 189.35 267.34 188.88 267.09 188.37 C266.82 187.84 266.75 187.24 266.89 186.66 C267.07 186.05 267.46 185.53 268 185.2 C268.24 185.05 268.49 184.93 268.73 184.81 L269.5 184.53 C271.55 184.06 273.66 183.89 275.76 184.02 C279.78 184.2 283.78 184.59 287.76 185.2 L287.6 185.64 C286.29 184.93 285.07 184.06 283.96 183.06 C283.64 182.78 283.44 182.39 283.39 181.97 C283.39 181.84 283.43 181.7 283.5 181.59 L283.69 181.35 C283.82 181.19 283.98 181.06 284.15 180.95 C284.85 180.61 285.64 180.51 286.4 180.66 C287.81 180.94 289.18 181.39 290.47 182.02 L294.24 183.78 C296.69 184.89 299.09 186.12 301.41 187.48 C301.98 187.82 302.52 188.2 303.04 188.61 C303.3 188.82 303.55 189.05 303.78 189.3 C303.99 189.56 304.16 189.85 304.31 190.15 C304.86 191.3 305.33 192.49 305.72 193.7 L305.72 193.7 C306.43 194.7 307.05 195.64 307.72 196.61 L309.55 199.49 L313 205 L319.48 215.18 L329.91 231.58 L336.55 242 L338.27 244.74 C338.65 245.36 338.83 245.68 338.83 245.68 C338.83 245.68 338.61 245.38 338.21 244.77 C337.81 244.16 337.21 243.24 336.45 242.07 L329.74 231.68 L319.23 215.34 L312.71 205.18 L309.16 199.65 L307.32 196.78 C306.7 195.78 306.08 194.78 305.38 193.89 L305.38 193.89 L305.38 193.89 C305 192.7 304.53 191.53 303.99 190.4 C303.85 190.13 303.69 189.87 303.5 189.63 C303.29 189.4 303.07 189.19 302.82 189 C302.32 188.6 301.79 188.24 301.24 187.91 C298.92 186.57 296.54 185.34 294.1 184.24 L290.33 182.5 C289.08 181.89 287.75 181.45 286.38 181.18 C285.73 181.04 285.04 181.12 284.44 181.41 C284.33 181.52 284.17 181.58 284.09 181.72 L283.94 181.9 C283.93 181.95 283.93 181.99 283.94 182.04 C283.94 182.26 284.17 182.56 284.39 182.8 C285.47 183.76 286.66 184.6 287.93 185.29 L288.93 185.89 L287.78 185.73 C283.8 185.13 279.8 184.74 275.78 184.57 C273.73 184.45 271.67 184.61 269.67 185.06 C268.7 185.23 267.87 185.86 267.44 186.74 C267.33 187.71 267.7 188.68 268.44 189.33 L268.32 189.26 L278 191.13 L280.46 191.6 C281.3 191.77 282.12 192.03 282.9 192.38 C284.49 193.1 285.88 194.18 286.97 195.54 C287.49 196.23 287.96 196.95 288.4 197.7 C288.85 198.42 289.3 199.14 289.74 199.89 C290.63 201.39 291.37 202.97 291.94 204.62 C292.98 207.98 293.63 211.45 293.87 214.96 L294.11 217.44 L294.23 218.67 L294.23 223.67 C294.14 224.09 294 224.5 293.82 224.89 C293.04 226.38 291.84 227.61 290.37 228.43 C288.97 229.27 287.47 229.92 285.9 230.38 C284.36 230.83 282.79 231.15 281.19 231.32 C279.6 231.51 278.02 231.47 276.48 231.57 C274.94 231.67 273.39 231.79 271.87 231.99 C270.35 232.19 268.87 232.49 267.32 232.68 L267.32 232.18 L268.93 232.18 L268.93 232.69 C265.36 232.46 261.81 233.32 258.73 235.14 C257.22 236 255.87 237.12 254.73 238.43 C254.2 239.07 253.82 239.83 253.63 240.64 C253.46 241.43 253.58 242.26 253.96 242.97 C254.38 243.65 255.07 244.12 255.85 244.27 C256.64 244.44 257.46 244.42 258.24 244.2 C259.83 243.78 261.24 242.82 262.81 242.25 C265.92 241.19 269.26 240.99 272.47 241.67 C275.51 242.27 278.49 243.11 281.39 244.19 C284.13 245.19 286.94 245.96 289.81 246.5 C291.18 246.73 292.56 246.82 293.95 246.78 C295.29 246.71 296.63 246.54 297.95 246.27 C299.25 246.01 300.57 245.87 301.9 245.86 C302.55 245.88 303.2 245.97 303.83 246.15 C304.45 246.35 305.04 246.65 305.56 247.04 L305.56 247.04 C306.95 247.85 308.16 248.95 309.1 250.26 C309.96 251.49 310.63 252.84 311.1 254.26 L311.1 254.26 L317.4 279.8 L319.06 286.63 C319.24 287.4 319.38 287.98 319.48 288.39 C319.58 288.8 319.6 289 319.6 289 Z" id="Path 85" style="fill:#EB996E;"/>
	</g>
</svg>