<?xml version="1.0" encoding="UTF-8"?>
<!-- Created with Grafika (https://www.grafika.cc/) -->
<svg xmlns="http://www.w3.org/2000/svg" xmlns:svg="http://www.w3.org/2000/svg" xmlns:xlink="http://www.w3.org/1999/xlink" width="900" height="508.61" viewBox="0 0 300 169.54" preserveAspectRatio="xMidYMid meet" id="cropped-image.svg">
	<g id="freepik--Floor--inject-2">
		<path d="M347 400.21 C347 400.35 252.1 400.47 135.06 400.47 C18.02 400.47 -76.94 400.35 -76.94 400.21 C-76.94 400.07 17.94 399.95 135.06 399.95 C252.18 399.95 347 400.06 347 400.21 Z" id="Path" style="fill:#263238;" />
	</g>
	<g id="freepik--Character--inject-2">
		<path d="M54.7 200.96 C54.63 200.83 54.57 200.7 54.53 200.56 C54.42 200.27 54.27 199.88 54.09 199.38 C53.7 198.38 53.15 196.79 52.48 194.79 C51.81 192.79 51.02 190.31 50.3 187.39 C49.45 184.09 48.94 180.71 48.76 177.3 C48.55 173.15 49.1 169 50.39 165.05 C51.12 162.85 52.16 160.76 53.48 158.86 C54.9 156.86 56.56 155.04 58.4 153.42 C60.24 151.72 62.22 150.1 64.12 148.32 C66.06 146.52 67.78 144.51 69.26 142.32 C72.28 137.61 74.4 132.39 75.51 126.91 C76.65 121.43 77.32 115.86 77.51 110.26 C77.78 104.84 77.88 99.59 78.26 94.6 C78.56 89.88 79.28 85.2 80.4 80.6 C80.93 78.52 81.59 76.47 82.4 74.48 C83.16 72.64 84.05 70.86 85.06 69.15 C86.77 66.18 88.91 63.49 91.41 61.15 C93.3 59.39 95.42 57.89 97.71 56.71 C99.17 55.99 100.7 55.43 102.28 55.02 L103.51 54.75 L103.94 54.67 C103.81 54.73 103.67 54.77 103.53 54.8 L102.3 55.12 C100.75 55.57 99.24 56.17 97.8 56.9 C95.54 58.1 93.46 59.6 91.61 61.36 C89.15 63.71 87.05 66.4 85.37 69.36 C84.39 71.06 83.52 72.83 82.77 74.65 C81.96 76.63 81.3 78.66 80.77 80.73 C79.67 85.33 78.97 90.01 78.69 94.73 C78.32 99.73 78.23 104.94 77.97 110.38 C77.78 116 77.12 121.6 75.97 127.11 C74.84 132.6 72.71 137.83 69.68 142.54 C68.18 144.77 66.43 146.82 64.46 148.65 C62.54 150.45 60.56 152.07 58.72 153.74 C56.9 155.33 55.27 157.13 53.85 159.09 C52.57 160.96 51.56 163.01 50.85 165.16 C49.56 169.06 48.99 173.16 49.18 177.26 C49.33 180.63 49.82 183.98 50.63 187.26 C51.32 190.17 52.08 192.64 52.72 194.65 C53.36 196.66 53.88 198.19 54.24 199.27 C54.4 199.78 54.53 200.18 54.63 200.48 L54.7 200.96 Z" id="Path 1" style="fill:#263238;" />
		<path d="M170.46 47.67 C179.82 45.79 189 53.01 193.05 61.67 C197.1 70.33 197.44 80.16 198.63 89.67 C203.29 126.67 221.85 160.49 243.95 190.47 C256.34 207.28 270.5 224.47 272.49 245.3 C272.9 249.54 272.67 254.14 270.15 257.58 C267.63 261.02 262.15 262.46 259.01 259.58 L161.2 253.34 L170.46 47.67 Z" id="Path 2" style="fill:#263238;" />
		<path d="M149.37 44.75 C136.2 33.82 113.82 37.29 101.5 48.11 C89.18 58.93 83 75.36 81 91.65 C79.43 104.65 80.26 117.79 79.28 130.83 C78.3 143.87 75.23 157.28 67.03 167.46 C57.63 179.13 41.87 186.22 37.3 200.46 C34.78 208.3 36.3 216.83 38.3 224.82 C39.9 231.3 42.37 238.4 48.3 241.41 C53.3 243.96 59.3 242.82 64.82 241.62 Q97.52 234.5 130.17 227.25 C133.53 226.5 137.11 225.63 139.45 223.1 C142.07 220.27 142.45 216.1 142.72 212.27 C146.55 154.92 148.72 102.19 149.39 44.72" id="Path 3" style="fill:#263238;" />
		<path d="M183.49 65.45 L183.56 74.7 L187.7 212.7 C187.92 228.77 176.84 242.25 159.64 242.36 L159.64 242.36 C142.27 242.48 127.79 229.43 127.29 213.2 C126.77 196.2 125.91 178.26 125.91 178.26 C125.91 178.26 103.91 175.26 98.54 146.72 C95.88 132.55 95.96 109.19 96.63 90.08 C96.92 81.84 100.55 74.08 106.7 68.58 C112.85 63.09 120.97 60.34 129.19 60.98 L183.49 65.45 Z" id="Path 4" style="fill:#FFBE9D;" />
		<path d="M102 107.81 C102.47 108.28 105.19 106.14 109.14 106.05 C113.09 105.96 116.04 107.84 116.46 107.35 C116.66 107.13 116.17 106.28 114.89 105.35 C113.14 104.21 111.09 103.64 109.01 103.72 C106.96 103.77 104.98 104.47 103.35 105.72 C102.19 106.73 101.8 107.6 102 107.81 Z" id="Path 5" style="fill:#263238;" />
		<path d="M145 106.4 C145.04 108.39 146.65 109.98 148.64 110 C149.59 110.05 150.51 109.71 151.21 109.07 C151.9 108.43 152.31 107.54 152.34 106.59 C152.3 104.6 150.69 103 148.7 102.98 C147.75 102.93 146.83 103.27 146.13 103.91 C145.43 104.55 145.03 105.45 145 106.4 Z" id="Path 6" style="fill:#263238;" />
		<path d="M140.88 101.79 C141.35 102.25 144.07 100.12 148.02 100.02 C151.97 99.92 154.92 101.82 155.34 101.32 C155.54 101.1 155.06 100.25 153.77 99.32 C152.02 98.18 149.97 97.61 147.89 97.69 C145.84 97.74 143.85 98.44 142.22 99.69 C141 100.7 140.65 101.54 140.88 101.79 Z" id="Path 7" style="fill:#263238;" />
		<path d="M127.35 131.48 C127.35 131.25 124.89 130.9 120.9 130.48 C119.9 130.4 118.9 130.23 118.74 129.54 C118.58 128.85 118.88 127.72 119.33 126.54 C120.21 124.08 121.14 121.54 122.1 118.78 C125.94 107.73 128.69 98.65 128.25 98.5 C127.81 98.35 124.33 107.19 120.49 118.24 Q119.09 122.32 117.84 126.04 C117.49 127.2 116.84 128.52 117.43 130.04 C117.75 130.75 118.38 131.28 119.13 131.47 C119.69 131.6 120.27 131.66 120.85 131.66 C124.86 131.75 127.34 131.7 127.35 131.48 Z" id="Path 8" style="fill:#263238;" />
		<path d="M125.91 178.3 C139.38 178.12 152.53 174.22 163.91 167.01 C163.91 167.01 155.15 186.93 126.43 185.01 L125.91 178.3 Z" id="Path 9" style="fill:#EB996E;" />
		<path d="M129.28 140.95 C130.75 138.98 133.14 137.92 135.59 138.13 C137.35 138.24 139 139.06 140.14 140.41 C141.26 141.73 141.44 143.6 140.59 145.11 C139.59 146.64 137.35 147.05 135.45 146.57 C133.56 145.96 131.82 144.98 130.31 143.69 C129.85 143.39 129.46 143 129.15 142.55 C128.85 142.11 128.85 141.52 129.15 141.08" id="Path 10" style="fill:#EB996E;" />
		<path d="M139.05 133.89 C138.41 133.89 138.52 138.16 134.93 141.3 C131.34 144.44 126.77 144.1 126.75 144.7 C126.7 144.97 127.75 145.5 129.75 145.5 C132.26 145.47 134.69 144.55 136.59 142.91 C138.41 141.33 139.55 139.1 139.77 136.7 C139.85 134.9 139.34 133.86 139.05 133.89 Z" id="Path 11" style="fill:#263238;" />
		<path d="M142.24 87.76 C142.66 88.82 146.59 88.2 151.24 88.63 C155.89 89.06 159.67 90.22 160.24 89.24 C160.5 88.77 159.82 87.78 158.24 86.78 C154.08 84.31 149.02 83.89 144.52 85.65 C142.89 86.38 142.06 87.25 142.24 87.76 Z" id="Path 12" style="fill:#263238;" />
		<path d="M102.59 100.48 C103.31 101.35 106 100.35 109.28 100.21 C112.56 100.07 115.33 100.65 115.95 99.69 C116.21 99.23 115.75 98.34 114.52 97.53 C112.87 96.53 110.96 96.07 109.04 96.21 C107.11 96.31 105.27 97.01 103.76 98.21 C102.62 99.11 102.27 100.05 102.59 100.48 Z" id="Path 13" style="fill:#263238;" />
		<path d="M123.14 92.14 C121.36 90.48 120.91 88.14 120.48 85.89 C118.61 88.31 117.59 91.29 117.58 94.35 C107.77 93.31 97.87 93.55 88.13 95.07 C83.43 80.86 89.24 64.34 100.65 54.66 C112.06 44.98 129.59 40.54 144.34 43.04 C149.13 43.15 156.07 48.21 156.07 48.21 C156.07 48.21 162.87 45.61 168.23 45.97 C176.08 46.5 182.72 50.1 186.91 56.76 C191.1 63.42 192.19 71.57 192.31 79.44 C192.47 90.32 190.94 101.17 187.8 111.59 L187.8 111.59 C176.24 108.98 169.93 102.53 164.12 92.2 C160.34 85.48 157.12 72.99 155.04 66.02 C155.04 66.02 150.41 67.71 145.69 73.74 C145.69 73.74 137.19 83.91 140.47 91.74 L123.14 92.14 Z" id="Path 14" style="fill:#263238;" />
		<path d="M182.81 109.86 C184.71 108.34 189.42 107.77 191.52 109.01 C193.58 110.36 195.07 112.42 195.7 114.8 C196.96 118.65 196.17 122.88 193.61 126.02 C190.97 129.02 186.18 130.02 182.81 127.93" id="Path 15" style="fill:#FFBE9D;" />
		<path d="M185.87 123.35 C186.75 123.43 187.64 123.35 188.49 123.11 C189.39 122.81 190.18 122.25 190.77 121.52 C191.46 120.6 191.79 119.46 191.69 118.32 C191.61 117.18 191.1 116.11 190.27 115.32 C189.57 114.69 188.7 114.27 187.77 114.11 C186.89 114.01 186.01 114.07 185.15 114.28 C185.34 114.12 185.57 114 185.81 113.94 C186.45 113.73 187.14 113.66 187.81 113.74 C188.83 113.86 189.8 114.28 190.57 114.96 C192.52 116.76 192.76 119.75 191.12 121.83 C190.46 122.62 189.57 123.19 188.58 123.47 C187.93 123.66 187.25 123.7 186.58 123.59 C186.33 123.57 186.08 123.49 185.87 123.35 Z" id="Path 16" style="fill:#EB996E;" />
		<path d="M104.37 95.17 C104.37 95.09 104.37 95.02 104.37 94.94 L104.3 94.24 C104.24 93.63 104.16 92.73 104.08 91.56 C103.92 89.24 103.74 85.86 103.83 81.68 C103.92 76.77 104.59 71.9 105.83 67.15 C107.36 61.3 110.25 55.9 114.26 51.37 C116.34 49.03 118.79 47.05 121.51 45.5 C124.05 44.07 126.82 43.08 129.69 42.58 C134.57 41.84 139.55 42.18 144.28 43.58 C147.46 44.47 150.56 45.64 153.53 47.08 C154.58 47.59 155.39 48 155.93 48.3 L156.54 48.63 C156.61 48.66 156.68 48.71 156.74 48.76 L156.52 48.68 L155.88 48.39 C155.33 48.12 154.51 47.74 153.45 47.26 C150.46 45.91 147.36 44.8 144.19 43.94 C139.51 42.6 134.59 42.3 129.78 43.04 C126.97 43.54 124.26 44.52 121.78 45.93 C119.11 47.46 116.71 49.42 114.66 51.71 C110.71 56.18 107.85 61.51 106.32 67.27 C105.08 71.98 104.38 76.81 104.26 81.68 C104.12 85.84 104.26 89.21 104.34 91.54 C104.34 92.67 104.43 93.54 104.46 94.22 C104.46 94.51 104.46 94.73 104.46 94.92 C104.46 95.11 104.38 95.17 104.37 95.17 Z" id="Path 17" style="fill:#455A64;" />
		<path d="M127.68 92.32 C127.62 92.12 127.58 91.92 127.57 91.71 C127.51 91.25 127.43 90.71 127.34 89.93 C127.16 88.39 126.91 86.15 126.74 83.38 C126.51 80.12 126.55 76.85 126.87 73.6 C127.26 69.6 128.35 65.7 130.1 62.08 C131.02 60.21 132.18 58.46 133.54 56.88 C134.82 55.42 136.29 54.13 137.9 53.05 C140.66 51.25 143.7 49.93 146.9 49.16 C149.03 48.62 151.21 48.24 153.4 48.05 C154.17 47.98 154.77 47.95 155.18 47.94 C155.39 47.91 155.6 47.91 155.81 47.94 C155.61 48 155.4 48.03 155.19 48.04 L153.42 48.25 C151.25 48.54 149.11 48.97 147 49.54 C143.87 50.36 140.9 51.69 138.21 53.48 C134.95 55.72 132.33 58.78 130.6 62.34 C128.88 65.91 127.79 69.75 127.39 73.69 C127.05 76.91 126.97 80.16 127.15 83.39 C127.27 86.16 127.47 88.39 127.58 89.94 C127.64 90.67 127.68 91.26 127.71 91.73 C127.73 91.93 127.72 92.13 127.68 92.32 Z" id="Path 18" style="fill:#455A64;" />
		<path d="M203.32 112.66 C203.38 111.54 203.23 110.42 202.9 109.35 C201.77 106.49 199.64 104.14 196.9 102.73 C193.58 100.68 188.9 100.09 183.9 98.8 C181.24 98.18 178.72 97.06 176.47 95.51 C174.14 93.73 172.17 91.52 170.66 89.01 C169.16 86.53 167.82 83.96 166.66 81.3 C165.5 78.74 164.47 76.23 163.6 73.8 C162.04 69.5 160.79 65.1 159.84 60.63 C159.19 57.62 158.69 54.57 158.35 51.51 C158.22 50.43 158.17 49.59 158.12 49.02 C158.1 48.73 158.1 48.43 158.12 48.14 C158.19 48.42 158.24 48.71 158.27 49 C158.34 49.57 158.43 50.41 158.6 51.49 C158.89 53.64 159.38 56.76 160.24 60.55 C161.21 64.99 162.46 69.36 164 73.64 C164.88 76.05 165.91 78.55 167.07 81.09 C168.23 83.72 169.57 86.27 171.07 88.73 C172.55 91.19 174.47 93.35 176.75 95.1 C178.94 96.62 181.4 97.72 184 98.34 C186.48 99.01 188.89 99.46 191.11 100.06 C193.21 100.55 195.23 101.34 197.11 102.41 C200.51 104.41 202.52 107.16 203.11 109.29 C203.26 109.76 203.36 110.23 203.41 110.72 C203.43 111.08 203.43 111.43 203.41 111.79 C203.4 112.08 203.37 112.37 203.32 112.66 Z" id="Path 19" style="fill:#455A64;" />
		<path d="M260.86 223.54 C260.86 223.54 261.18 223.21 261.74 222.54 C262.55 221.6 263.24 220.56 263.79 219.44 C265.77 215.28 266.26 210.57 265.17 206.09 C263.97 200.41 260.6 194.21 256.17 188 C251.17 181.33 245.62 175.09 239.57 169.35 C233.25 163.11 227.09 157.28 222.01 151.47 C217.41 146.4 213.38 140.83 210.01 134.87 C207.77 130.84 206.03 126.55 204.85 122.09 C204.66 121.3 204.47 120.6 204.34 119.98 C204.21 119.36 204.14 118.85 204.06 118.42 C203.98 117.99 203.95 117.7 203.91 117.42 C203.89 117.31 203.89 117.2 203.91 117.09 C203.96 117.19 203.99 117.3 204 117.41 C204.05 117.65 204.12 117.96 204.21 118.41 C204.3 118.86 204.4 119.36 204.53 119.96 C204.66 120.56 204.88 121.26 205.08 122.05 C206.34 126.46 208.11 130.71 210.37 134.7 C213.76 140.6 217.79 146.12 222.37 151.16 C227.45 156.93 233.61 162.74 239.94 168.99 C246 174.75 251.56 181.02 256.56 187.73 C261.03 193.99 264.39 200.25 265.56 206.02 C266.13 208.61 266.22 211.27 265.83 213.89 C265.55 215.86 264.93 217.77 264 219.54 C263.43 220.66 262.7 221.69 261.84 222.61 C261.54 222.95 261.21 223.26 260.86 223.54 Z" id="Path 20" style="fill:#263238;" />
		<path d="M171.87 46.17 C166.63 41.83 164.03 35.07 165 28.34 C166.12 21.65 170.43 15.92 176.55 13 C181.92 10.44 188.15 10.4 193.55 12.9 C198.94 15.49 202.66 20.62 203.45 26.54 C204.12 32.48 201.42 38.3 196.45 41.63 C194.04 43.16 191.26 43.95 188.59 44.98 C185.92 46.01 183.26 47.34 181.54 49.61 C179.82 51.88 179.34 55.31 181.1 57.55" id="Path 21" style="fill:#263238;" />
		<path d="M174.43 17.45 C174.52 17.27 174.62 17.1 174.75 16.94 C174.88 16.74 175.04 16.55 175.2 16.37 C175.41 16.11 175.64 15.88 175.89 15.66 C177.46 14.22 179.41 13.25 181.51 12.88 C184.65 12.26 187.9 12.96 190.51 14.8 C193.7 17.07 195.83 20.53 196.43 24.4 C196.95 28.26 196.15 32.19 194.16 35.54 C192.55 38.25 190.34 40.54 187.69 42.24 C185.93 43.4 184.02 44.32 182.02 44.97 C181.32 45.21 180.76 45.36 180.38 45.45 C180.19 45.51 179.99 45.54 179.79 45.56 C179.97 45.47 180.16 45.4 180.35 45.35 C180.72 45.23 181.26 45.05 181.95 44.78 C183.9 44.06 185.76 43.11 187.48 41.94 C190.05 40.24 192.19 37.96 193.74 35.3 C195.65 32.04 196.42 28.24 195.93 24.5 C195.35 20.77 193.3 17.42 190.24 15.21 C188.91 14.26 187.4 13.61 185.8 13.29 C184.4 13.04 182.97 13.04 181.57 13.29 C179.52 13.6 177.59 14.48 176 15.81 C175.45 16.33 174.92 16.88 174.43 17.45 Z" id="Path 22" style="fill:#455A64;" />
		<path d="M186.58 46.84 C185.46 45.59 183.83 44.94 182.16 45.06 C180.51 45.06 178.89 45.49 177.25 45.6 C174.54 45.79 171.83 45.16 169.48 43.8 C169.21 43.5 168.82 43.33 168.41 43.35 C168.01 43.37 167.64 43.58 167.4 43.91 C167.05 44.7 167.21 45.62 167.82 46.24 C168.43 46.83 169.18 47.25 170.01 47.44 C173.6 48.5 177.61 48.03 180.94 49.72 C182.52 50.53 184.24 51.82 185.85 51.09 C187.46 50.36 187.57 48.16 186.58 46.84 Z" id="Path 23" style="fill:#FEB262;" />
		<path d="M169.76 47.35 C169.76 47.35 169.76 47.35 169.76 47.48 L169.76 47.62 L169.62 47.47 C169.31 46.95 169.23 46.32 169.39 45.73 C169.47 45.28 169.69 44.87 170 44.54 C170.26 44.29 170.5 44.25 170.53 44.31 C170.26 44.8 170.04 45.31 169.89 45.85 C169.8 46.37 169.77 46.89 169.78 47.42 L169.62 47.42 C169.7 47.35 169.74 47.33 169.76 47.35 Z" id="Path 24" style="fill:#263238;" />
		<path d="M173.34 48.05 C173.34 48.05 173.12 47.99 172.96 47.73 C172.57 47.01 172.69 46.11 173.26 45.52 C173.48 45.3 173.67 45.25 173.71 45.3 C173.75 45.35 173.35 45.9 173.27 46.64 C173.19 47.38 173.46 47.97 173.34 48.05 Z" id="Path 25" style="fill:#263238;" />
		<path d="M177.09 48.87 C176.96 48.79 177.3 48.07 177.33 47.12 C177.36 46.17 177.09 45.43 177.22 45.36 C177.35 45.29 177.9 46.04 177.85 47.14 C177.8 48.24 177.19 48.96 177.09 48.87 Z" id="Path 26" style="fill:#263238;" />
		<path d="M181.4 50.42 C181.8 49.57 182.01 48.65 182.02 47.71 C181.85 46.79 181.48 45.91 180.93 45.15 C180.93 45.15 181.3 45.24 181.68 45.66 C182.18 46.21 182.48 46.92 182.54 47.66 C182.61 48.41 182.44 49.15 182.04 49.79 C181.74 50.27 181.45 50.47 181.4 50.42 Z" id="Path 27" style="fill:#263238;" />
		<path d="M184.18 51 C184.13 50.93 184.42 50.7 184.76 50.23 C185.68 49.03 185.82 47.41 185.14 46.07 C184.89 45.56 184.65 45.27 184.71 45.21 C184.77 45.15 185.1 45.37 185.46 45.89 C185.93 46.59 186.14 47.42 186.07 48.26 C186 49.09 185.65 49.87 185.07 50.47 C184.59 50.92 184.21 51.05 184.18 51 Z" id="Path 28" style="fill:#263238;" />
		<path d="M186 53.68 C186.04 53.79 186.07 53.91 186.08 54.03 C186.12 54.36 186.12 54.7 186.08 55.03 C185.89 56.31 185.27 57.49 184.34 58.39 C183.71 59.03 182.96 59.54 182.13 59.89 C181.17 60.27 180.16 60.49 179.13 60.54 C176.81 60.59 174.5 60.16 172.36 59.26 C168.43 57.74 164.97 55.2 162.36 51.89 C161.58 50.9 160.88 49.84 160.29 48.72 C160.06 48.32 159.87 47.89 159.73 47.45 C160.62 48.91 161.59 50.32 162.65 51.66 C165.29 54.83 168.69 57.28 172.53 58.78 C174.61 59.65 176.84 60.09 179.09 60.06 C180.92 60.05 182.69 59.36 184.04 58.13 C184.95 57.3 185.58 56.2 185.84 55 C186 54.18 185.94 53.68 186 53.68 Z" id="Path 29" style="fill:#455A64;" />
		<path d="M285.78 300.23 C284.58 288.68 278.05 278.38 270.78 269.29 C263.51 260.2 255.34 251.75 249.78 241.53 C246.06 234.68 243.64 227.2 240.37 220.12 C237.1 213.04 232.78 206.12 226.32 201.77 C219.86 197.42 202.52 191.09 188.86 193.48 L187 196.69 C166.63 204.1 144.77 205.09 126.7 196.11 C116.76 199.8 74.89 210.16 67.52 222.6 C65.77 225.6 66.27 232.7 68.14 242.09 L35 222.39 L5.54 298.64 L5.36 299.23 C-0.59 319.3 10.37 340.48 30.18 347.23 L30.18 347.23 C51.27 348.99 72.16 342.05 88 328.01 L93.51 323.13 C97.79 334.75 100.84 342.55 100.84 342.55 L81.84 400.21 L228.5 400.21 L206.77 339.21 L213.77 321.16 C214.67 322.76 215.63 324.36 216.65 325.99 C223.22 336.51 238.34 347.93 250.74 347.77 C257.98 347.68 266.5 342.86 271.98 338.13 C282.08 329.46 287.15 313.47 285.78 300.23 Z" id="Path 30" style="fill:#FEB262;" />
		<path d="M35 222.39 L35.22 222.5 L35.86 222.86 L38.31 224.27 L47.47 229.66 L79.18 248.48 L79.37 248.6 L79.27 248.8 C76.09 255.7 74.08 263.8 72.71 272.38 C71.07 282.71 70.16 292.69 68.2 301.59 C67.32 305.81 66.11 309.96 64.6 314 C63.27 317.51 61.59 320.89 59.6 324.07 C56.74 328.72 53.01 332.76 48.6 335.98 C47.4 336.84 46.13 337.62 44.82 338.3 L43.82 338.81 C43.71 338.88 43.59 338.93 43.46 338.96 L43.8 338.76 L44.8 338.2 C46.09 337.49 47.32 336.69 48.51 335.82 C52.84 332.56 56.52 328.51 59.34 323.88 C61.3 320.71 62.96 317.36 64.28 313.88 C65.71 309.85 66.85 305.73 67.69 301.54 C69.61 292.67 70.5 282.71 72.15 272.34 C73.52 263.78 75.55 255.6 78.78 248.64 L78.87 248.96 L47.26 229.96 L38.18 224.45 L35.77 222.97 L35.15 222.58 C35 222.45 34.94 222.4 35 222.39 Z" id="Path 31" style="fill:#263238;" />
		<path d="M213.78 321.17 C213.78 321.17 213.67 321.02 213.52 320.7 L212.87 319.31 L210.58 314.16 C208.68 309.8 205.99 303.8 203.24 297.06 C201.93 293.88 200.97 290.57 200.37 287.19 C199.79 284.41 199.92 281.54 200.73 278.82 C201.4 277.04 202.42 275.41 203.73 274.02 C204.19 273.53 204.54 273.15 204.8 272.91 C204.92 272.78 205.06 272.66 205.21 272.56 C205.21 272.56 204.73 273.13 203.89 274.15 C202.67 275.56 201.73 277.18 201.1 278.94 C200.35 281.61 200.28 284.42 200.87 287.12 C201.49 290.46 202.45 293.73 203.74 296.87 C206.48 303.58 209.12 309.62 210.94 314.02 C211.82 316.17 212.54 317.93 213.08 319.23 C213.3 319.81 213.49 320.28 213.64 320.66 C213.7 320.83 213.75 321 213.78 321.17 Z" id="Path 32" style="fill:#263238;" />
		<path d="M273.66 301.54 C273.54 301.34 273.43 301.13 273.35 300.91 C273.16 300.45 272.9 299.85 272.58 299.09 L269.79 292.38 C267.43 286.71 264.15 278.89 260.38 270.32 C256.61 261.75 253.04 254.03 250.56 248.44 C249.23 245.71 247.18 243.99 245.51 243.72 C244.87 243.62 244.21 243.62 243.57 243.72 C243.34 243.76 243.11 243.79 242.88 243.81 L243.05 243.74 C243.16 243.74 243.33 243.66 243.55 243.62 C244.21 243.48 244.88 243.45 245.55 243.54 C247.33 243.76 249.5 245.54 250.9 248.29 C253.48 253.87 257.12 261.53 260.9 270.13 C264.68 278.73 267.9 286.55 270.17 292.26 C271.31 295.11 272.17 297.43 272.81 299.04 C273.09 299.81 273.32 300.42 273.49 300.9 C273.56 301.11 273.62 301.32 273.66 301.54 Z" id="Path 33" style="fill:#263238;" />
		<path d="M276 294.47 C275.91 294.47 275.56 293.23 274.79 291.27 C273.77 288.73 272.47 286.32 270.93 284.06 C269.37 281.81 267.56 279.74 265.55 277.89 C264 276.47 262.94 275.7 262.99 275.62 C263.28 275.74 263.55 275.9 263.79 276.09 C264.49 276.56 265.15 277.06 265.79 277.61 C267.9 279.41 269.78 281.48 271.36 283.76 C272.93 286.05 274.2 288.53 275.13 291.14 C275.41 291.93 275.65 292.73 275.84 293.55 C275.94 293.85 275.99 294.16 276 294.47 Z" id="Path 34" style="fill:#263238;" />
		<path d="M187.13 329.68 C186.94 329.88 186.74 330.07 186.52 330.24 C186.11 330.6 185.52 331.13 184.71 331.78 C183.13 333.1 180.8 334.96 177.82 337.15 C170.11 342.92 161.66 347.63 152.69 351.15 C147.72 353.02 142.58 354.36 137.33 355.15 C133.05 355.81 128.71 356.02 124.38 355.79 C121.47 355.64 118.57 355.24 115.72 354.61 C114.72 354.41 113.94 354.16 113.41 354.03 C113.14 353.96 112.88 353.88 112.62 353.78 C112.9 353.8 113.17 353.85 113.44 353.92 C113.97 354.02 114.74 354.24 115.76 354.41 C118.61 354.96 121.49 355.3 124.39 355.41 C128.69 355.59 133.01 355.34 137.26 354.67 C142.46 353.85 147.57 352.51 152.5 350.67 C161.43 347.15 169.86 342.51 177.61 336.85 C180.61 334.71 182.96 332.85 184.61 331.62 L186.48 330.16 C186.68 329.98 186.9 329.82 187.13 329.68 Z" id="Path 35" style="fill:#263238;" />
		<g opacity="0.3">
			<path d="M185 331.45 C172.61 337.71 159.87 344.06 146.07 345.52 C142.45 345.9 138.78 345.94 135.21 346.69 C131.64 347.44 128.1 349.01 125.83 351.86 C125.15 352.72 124.59 353.97 125.23 354.86 C125.78 355.43 126.54 355.76 127.34 355.75 C137.97 356.88 148.71 353.92 158.27 349.13 C167.83 344.34 176.37 337.81 184.85 331.3" id="Path 36" style="fill:#000000;" />
		</g>
		<g opacity="0.3">
			<path d="M200.84 288.83 C201.84 297.52 199.73 304.17 199.53 312.91 C199.33 321.65 201.74 332.07 206.77 339.22 L213.77 321.22 C213.77 321.22 211.43 315.11 209.98 312.09 C206.46 304.83 203.49 297.32 201.09 289.62" id="Path 37" style="fill:#000000;" />
		</g>
		<g opacity="0.3">
			<path d="M43.33 338.96 C48.66 341.19 54.88 339.78 59.47 336.28 C67.05 330.51 71.77 321.62 74.17 312.4 C76.57 303.18 76.85 293.54 77 284.05 C77.15 274.56 77.13 264.93 79 255.59 C79.18 254.71 79.15 253.47 78.27 253.29 C77.55 253.14 76.95 253.89 76.68 254.58 C73.1 263.85 71.39 279.46 70.11 290.58 C68.76 302.33 67.17 306.44 63.44 316.23 C59.71 326.02 53.63 333.73 43.37 338.92" id="Path 38" style="fill:#000000;" />
		</g>
		<path d="M244.59 246.97 C244.71 247.16 244.81 247.36 244.87 247.58 C245.09 248.18 245.24 248.81 245.33 249.44 C245.58 251.78 245.44 254.15 244.92 256.44 C244.64 257.9 244.27 259.44 243.83 261.17 C243.37 262.98 242.81 264.75 242.14 266.49 C240.59 270.5 238.37 274.22 235.58 277.49 C232.82 280.77 229.41 283.45 225.58 285.37 C222.42 286.89 218.97 287.73 215.46 287.82 C213.1 287.88 210.75 287.53 208.51 286.77 C207.9 286.58 207.31 286.33 206.74 286.05 C206.54 285.96 206.34 285.86 206.15 285.74 C206.37 285.79 206.58 285.86 206.78 285.95 C207.36 286.19 207.96 286.4 208.57 286.58 C210.8 287.25 213.12 287.54 215.45 287.45 C218.89 287.31 222.27 286.45 225.37 284.94 C229.14 283.03 232.48 280.38 235.21 277.15 C237.96 273.94 240.15 270.29 241.71 266.36 C242.39 264.65 242.97 262.89 243.43 261.11 C243.89 259.44 244.28 257.87 244.58 256.42 C245.13 254.16 245.32 251.83 245.15 249.51 C245.03 248.65 244.85 247.8 244.59 246.97 Z" id="Path 39" style="fill:#263238;" />
		<path d="M231.69 205.7 L231.21 205.82 C230.74 205.91 230.28 206.05 229.83 206.21 C228.08 206.83 226.5 207.83 225.2 209.15 C223.15 211.25 221.48 213.68 220.27 216.35 C218.76 219.41 217.54 223.16 215.41 226.95 C214.33 228.97 212.91 230.79 211.22 232.33 C209.33 233.97 207.02 235.05 204.55 235.44 C201.93 235.81 199.26 235.81 196.64 235.44 C193.95 235.14 191.2 234.67 188.36 234.55 C186.93 234.47 185.5 234.53 184.08 234.71 C182.64 234.93 181.24 235.36 179.93 235.98 C177.26 237.4 174.95 239.41 173.16 241.85 C171.23 244.26 169.49 246.92 167.45 249.42 C166.42 250.69 165.29 251.87 164.06 252.95 C162.79 254.01 161.38 254.91 159.87 255.6 C156.86 256.98 153.57 257.63 150.26 257.52 C147.05 257.41 143.91 256.63 141.02 255.23 C138.22 253.88 135.79 251.87 133.94 249.38 C132.3 246.93 130.91 244.33 129.77 241.62 C128.72 239.07 127.37 236.65 125.77 234.4 C124.97 233.35 124.04 232.42 122.98 231.64 L122.18 231.1 L121.34 230.65 C120.78 230.36 120.2 230.11 119.61 229.9 C117.28 229.21 114.86 228.84 112.42 228.82 C110.07 228.73 107.8 228.74 105.64 228.53 C103.57 228.38 101.55 227.89 99.64 227.08 C97.94 226.32 96.44 225.16 95.29 223.7 C93.44 221.35 92.41 218.47 92.35 215.48 C92.29 213.61 92.66 211.75 93.44 210.04 C93.64 209.6 93.87 209.17 94.14 208.77 L94.42 208.36 C94.42 208.36 94.35 208.52 94.19 208.8 C93.94 209.21 93.72 209.64 93.54 210.09 C92.8 211.78 92.46 213.62 92.54 215.47 C92.65 218.41 93.7 221.23 95.54 223.52 C96.68 224.94 98.14 226.05 99.8 226.78 C101.68 227.56 103.68 228.03 105.71 228.16 C107.85 228.36 110.12 228.34 112.48 228.42 C114.95 228.43 117.42 228.79 119.79 229.49 C120.4 229.7 121 229.96 121.58 230.26 L122.45 230.72 L123.28 231.28 C124.37 232.08 125.34 233.04 126.17 234.11 C127.82 236.38 129.19 238.83 130.28 241.42 C131.41 244.1 132.79 246.67 134.41 249.09 C136.22 251.51 138.59 253.46 141.32 254.77 C144.13 256.14 147.2 256.9 150.32 257 C153.55 257.11 156.75 256.47 159.69 255.13 C161.16 254.46 162.52 253.59 163.76 252.55 C164.96 251.49 166.08 250.34 167.09 249.1 C169.09 246.62 170.84 243.97 172.8 241.53 C174.64 239.03 177.01 236.98 179.75 235.53 C181.11 234.89 182.56 234.45 184.05 234.22 C185.5 234.05 186.96 234 188.42 234.07 C191.3 234.2 194.06 234.68 196.73 234.99 C199.31 235.37 201.93 235.39 204.52 235.04 C206.92 234.66 209.16 233.63 211 232.04 C212.66 230.54 214.06 228.76 215.13 226.79 C217.26 223.05 218.5 219.32 220.05 216.24 C221.3 213.56 223.01 211.12 225.1 209.03 C226.43 207.71 228.05 206.71 229.83 206.13 C230.29 205.97 230.76 205.86 231.24 205.79 L231.69 205.7 Z" id="Path 40" style="fill:#FAFAFA;" />
		<path d="M202.76 294.66 L202.43 294.84 C202.11 295.01 201.77 295.15 201.43 295.26 C200.04 295.69 198.54 295.58 197.22 294.96 C195.22 293.92 193.3 292.74 191.47 291.41 C189.28 289.93 187 287.96 184.19 286.26 C182.72 285.38 181.14 284.71 179.49 284.26 C177.69 283.81 175.83 283.63 173.97 283.74 C169.86 284.08 165.86 285.28 162.24 287.26 C158.23 289.43 154.36 291.86 150.66 294.54 C146.72 297.2 142.49 299.91 137.61 301.44 C132.83 302.94 127.71 302.92 122.94 301.39 C118.55 299.98 114.37 298 110.51 295.49 C106.78 293.19 103.35 290.84 99.98 288.91 C96.9 287.05 93.6 285.58 90.17 284.51 C87.33 283.65 84.36 283.31 81.4 283.51 C79.17 283.68 76.99 284.26 74.96 285.21 C73.24 286.05 71.67 287.17 70.31 288.51 C70.38 288.41 70.47 288.31 70.56 288.23 C70.73 288.05 70.99 287.78 71.34 287.44 C72.41 286.48 73.59 285.67 74.87 285.03 C76.91 284.03 79.11 283.42 81.37 283.22 C84.37 282.98 87.38 283.29 90.27 284.13 C93.75 285.2 97.08 286.68 100.2 288.54 C103.59 290.47 107.04 292.81 110.76 295.09 C114.6 297.56 118.74 299.52 123.09 300.91 C127.76 302.4 132.78 302.4 137.45 300.91 C142.24 299.41 146.45 296.74 150.37 294.09 C154.08 291.4 157.97 288.96 162 286.79 C165.68 284.8 169.74 283.6 173.92 283.27 C175.82 283.17 177.72 283.36 179.56 283.83 C181.25 284.31 182.86 285.02 184.35 285.94 C187.19 287.69 189.45 289.68 191.6 291.17 C193.4 292.5 195.3 293.71 197.27 294.78 C198.54 295.4 200 295.54 201.37 295.16 C202.3 294.89 202.74 294.62 202.76 294.66 Z" id="Path 41" style="fill:#FAFAFA;" />
		<path d="M145.61 351.83 C145.45 351.73 145.3 351.61 145.16 351.48 L143.92 350.39 L139.42 346.39 C134.53 341.92 129.11 338.08 123.27 334.96 C120.02 333.34 116.56 332.14 113 331.42 C110.09 330.83 107.12 330.64 104.16 330.86 C102.16 331.01 100.19 331.38 98.27 331.97 C96.92 332.39 96.19 332.69 96.17 332.64 C96.33 332.54 96.5 332.46 96.68 332.39 C97.18 332.16 97.69 331.96 98.21 331.78 C100.12 331.11 102.1 330.67 104.12 330.49 C107.13 330.21 110.16 330.37 113.12 330.95 C116.73 331.67 120.22 332.88 123.5 334.54 C129.38 337.67 134.82 341.58 139.66 346.16 C141.55 347.87 143.04 349.3 144.06 350.29 L145.23 351.45 C145.37 351.56 145.5 351.69 145.61 351.83 Z" id="Path 42" style="fill:#FAFAFA;" />
		<path d="M215.9 363.64 C215.38 362.66 214.75 361.74 214.03 360.89 C211.88 358.72 209.06 357.34 206.03 356.98 C203.96 356.67 201.85 356.69 199.79 357.04 C197.43 357.49 195.13 358.23 192.95 359.24 C190.62 360.24 188.25 361.53 185.77 362.8 C183.23 364.17 180.58 365.32 177.84 366.24 C176.44 366.7 175.02 367.06 173.58 367.34 C172.17 367.59 170.76 367.76 169.33 367.84 C168.64 367.9 167.94 367.93 167.25 367.91 C166.56 367.91 165.88 367.91 165.25 367.91 C163.9 367.79 162.58 367.72 161.32 367.48 C156.8 366.78 152.45 365.26 148.49 362.98 C145.82 361.46 143.37 359.6 141.19 357.43 C140.4 356.68 139.9 356 139.51 355.58 C139.31 355.37 139.13 355.14 138.97 354.9 C139.19 355.09 139.4 355.29 139.59 355.51 C140 355.9 140.53 356.56 141.33 357.28 C143.54 359.37 146.01 361.18 148.67 362.66 C152.61 364.87 156.92 366.34 161.39 367 C162.64 367.23 163.95 367.3 165.27 367.41 C165.94 367.41 166.61 367.41 167.27 367.41 C167.95 367.42 168.64 367.4 169.32 367.33 C170.72 367.25 172.12 367.08 173.5 366.83 C174.92 366.56 176.32 366.19 177.7 365.74 C180.41 364.83 183.04 363.69 185.56 362.34 C188.04 361.08 190.42 359.82 192.78 358.8 C195.01 357.78 197.36 357.04 199.78 356.61 C201.89 356.27 204.04 356.27 206.15 356.61 C209.24 357.01 212.1 358.47 214.23 360.75 L214.72 361.34 C214.86 361.52 214.98 361.71 215.09 361.91 C215.3 362.2 215.47 362.5 215.61 362.83 C215.72 363.09 215.82 363.36 215.9 363.64 Z" id="Path 43" style="fill:#FAFAFA;" />
		<path d="M222.48 380.62 C222.36 380.63 222.23 380.63 222.11 380.62 L221.04 380.48 C219.67 380.31 218.29 380.24 216.91 380.27 C214.73 380.34 212.55 380.62 210.42 381.1 C207.6 381.75 204.85 382.65 202.19 383.8 C198.96 385.18 195.81 386.74 192.76 388.48 C189.46 390.33 185.96 392.39 182.17 394.37 C178.22 396.49 174.05 398.17 169.73 399.37 C165.04 400.59 160.15 400.81 155.37 400.01 C150.63 399.17 146.01 397.73 141.63 395.73 C137.36 393.86 133.39 391.73 129.63 389.81 C122.13 385.81 115.04 382.72 108.76 381.28 C105.95 380.6 103.07 380.21 100.18 380.13 C98 380.09 95.82 380.29 93.68 380.72 C92.9 380.87 92.12 381.07 91.36 381.3 C90.79 381.45 90.24 381.64 89.7 381.86 L88.7 382.23 L88.35 382.34 L88.68 382.18 L89.68 381.76 C90.22 381.52 90.77 381.31 91.34 381.15 C92.1 380.9 92.88 380.69 93.66 380.52 C95.81 380.06 98.01 379.83 100.21 379.84 C103.13 379.89 106.03 380.26 108.87 380.92 C115.2 382.33 122.35 385.38 129.87 389.39 C133.67 391.34 137.64 393.39 141.87 395.27 C146.22 397.25 150.8 398.67 155.5 399.5 C160.21 400.28 165.02 400.06 169.64 398.87 C173.93 397.68 178.08 396.02 182 393.91 C185.78 391.96 189.28 389.91 192.61 388.08 C195.68 386.35 198.85 384.8 202.1 383.43 C204.79 382.3 207.57 381.42 210.41 380.78 C212.56 380.32 214.76 380.07 216.96 380.04 C218.35 380.03 219.74 380.13 221.11 380.34 L222.17 380.54 L222.48 380.62 Z" id="Path 44" style="fill:#FAFAFA;" />
		<path d="M264.85 279.03 C264.7 279.25 264.54 279.46 264.36 279.65 C263.86 280.21 263.39 280.79 262.97 281.41 C261.41 283.69 260.16 286.16 259.24 288.76 C257.97 292.01 256.88 296.06 255.02 300.33 C254.05 302.57 252.76 304.66 251.2 306.54 C249.49 308.56 247.38 310.2 245 311.36 C240.37 313.52 235.24 314.36 230.17 313.8 C226.06 313.33 222.02 312.33 218.17 310.8 C214.88 309.55 212.3 308.35 210.53 307.52 L208.53 306.52 C208.29 306.42 208.06 306.29 207.84 306.14 C208.09 306.21 208.34 306.31 208.58 306.42 L210.65 307.31 C212.45 308.08 215.05 309.23 218.33 310.43 C222.16 311.88 226.15 312.84 230.22 313.27 C235.2 313.8 240.23 312.96 244.77 310.84 C247.09 309.71 249.15 308.12 250.82 306.16 C252.36 304.31 253.63 302.26 254.59 300.06 C256.46 295.84 257.59 291.8 258.91 288.54 C259.87 285.93 261.18 283.46 262.82 281.21 C263.26 280.6 263.75 280.02 264.29 279.49 C264.47 279.32 264.65 279.17 264.85 279.03 Z" id="Path 45" style="fill:#FAFAFA;" />
		<path d="M275.85 294.54 C275.76 294.54 275.67 294.18 275.35 293.69 C274.49 292.39 272.97 291.69 271.43 291.89 C270.85 291.97 270.5 292.14 270.43 292.07 C270.36 292 270.69 291.72 271.32 291.53 C273.05 291.09 274.86 291.92 275.65 293.53 C275.94 294.07 275.9 294.54 275.85 294.54 Z" id="Path 46" style="fill:#FAFAFA;" />
		<path d="M273.82 287.95 C274.08 288.01 274.32 288.1 274.56 288.21 C275.25 288.53 275.89 288.94 276.48 289.42 C278.59 291.3 280 293.84 280.48 296.62 C280.8 298.52 280.84 300.46 280.6 302.37 C280.32 304.55 279.89 306.7 279.31 308.82 C278.13 313.7 276.7 318.52 275 323.25 C273.32 328.01 270.88 332.47 267.78 336.46 C265.19 339.68 261.99 342.36 258.36 344.33 C256.95 345.06 255.48 345.66 253.97 346.12 C252.82 346.45 251.65 346.69 250.47 346.84 L249.17 346.96 L248.17 346.96 L247.39 346.96 C247.65 346.91 247.91 346.88 248.17 346.89 L249.12 346.83 L250.4 346.67 C251.56 346.49 252.71 346.23 253.84 345.88 C255.33 345.39 256.76 344.77 258.14 344.03 C261.7 342.04 264.83 339.38 267.37 336.19 C270.42 332.23 272.81 327.81 274.47 323.1 C276.14 318.39 277.58 313.6 278.76 308.74 C279.34 306.64 279.79 304.51 280.09 302.35 C280.35 300.48 280.33 298.58 280.04 296.71 C279.61 293.99 278.3 291.5 276.3 289.61 C275.55 288.95 274.72 288.39 273.82 287.95 Z" id="Path 47" style="fill:#FAFAFA;" />
		<path d="M268 266.54 C266.49 266.36 264.97 266.36 263.46 266.54 C261.98 266.88 260.54 267.39 259.18 268.08 C261.56 265.87 265.01 265.27 268 266.54 Z" id="Path 48" style="fill:#FAFAFA;" />
		<path d="M58.63 323.39 C57.86 323.76 57.02 323.99 56.17 324.07 C53.82 324.27 51.46 323.76 49.41 322.6 C47.98 321.84 46.67 320.89 45.5 319.77 C44.17 318.48 43 317.03 42.01 315.47 C39.84 312.23 38.06 308.33 35.52 304.69 C33.09 301.3 30.04 298.4 26.52 296.16 C23.64 294.33 20.5 292.94 17.21 292.04 C14.99 291.43 12.71 291.06 10.41 290.92 C8.78 290.83 7.87 290.85 7.87 290.8 C8.09 290.76 8.31 290.75 8.53 290.75 C9.16 290.72 9.79 290.72 10.42 290.75 C12.75 290.82 15.06 291.16 17.31 291.75 C20.66 292.61 23.85 293.98 26.78 295.82 C30.38 298.07 33.5 301.01 35.98 304.46 C38.56 308.16 40.33 312.07 42.45 315.28 C43.42 316.82 44.56 318.24 45.84 319.53 C46.97 320.64 48.24 321.58 49.63 322.34 C51.61 323.51 53.89 324.06 56.19 323.93 C57.01 323.81 57.83 323.63 58.63 323.39 Z" id="Path 49" style="fill:#FAFAFA;" />
		<path d="M72 270.76 C71.82 270.79 71.63 270.79 71.45 270.76 L69.86 270.58 C69.18 270.5 68.34 270.39 67.37 270.19 C66.4 269.99 65.3 269.83 64.1 269.51 C62.9 269.19 61.58 268.89 60.19 268.44 C58.8 267.99 57.34 267.49 55.8 266.93 C49.15 264.38 42.95 260.76 37.45 256.23 C36.2 255.16 35 254.17 33.97 253.14 C32.94 252.11 31.97 251.14 31.12 250.26 C30.27 249.38 29.55 248.5 28.91 247.75 C28.36 247.11 27.84 246.44 27.35 245.75 L26.41 244.46 C26.29 244.32 26.19 244.16 26.11 243.99 C26.25 244.11 26.38 244.25 26.49 244.4 L27.49 245.62 C27.92 246.16 28.49 246.81 29.12 247.54 C29.75 248.27 30.49 249.12 31.37 249.98 C32.25 250.84 33.17 251.83 34.25 252.8 C35.33 253.77 36.5 254.8 37.74 255.8 C43.24 260.27 49.4 263.86 56 266.45 C57.52 267.02 59 267.59 60.35 268 C61.7 268.41 63.03 268.81 64.22 269.12 C65.41 269.43 66.5 269.66 67.46 269.87 C68.42 270.08 69.24 270.24 69.93 270.35 L71.49 270.63 C71.66 270.65 71.84 270.7 72 270.76 Z" id="Path 50" style="fill:#FAFAFA;" />
		<path d="M73.14 338.34 C73.04 338.34 73.22 336.95 73.03 334.74 C72.92 333.45 72.71 332.16 72.4 330.9 C72.01 329.36 71.49 327.86 70.86 326.41 C70.2 324.96 69.42 323.58 68.53 322.26 C67.79 321.19 66.96 320.18 66.04 319.26 C64.46 317.71 63.24 317.02 63.3 316.93 C63.61 317.04 63.9 317.19 64.17 317.38 C64.52 317.57 64.85 317.78 65.17 318.02 C65.58 318.33 65.97 318.66 66.34 319.02 C67.32 319.93 68.2 320.93 68.98 322.02 C69.91 323.34 70.71 324.75 71.38 326.23 C72.03 327.71 72.55 329.25 72.92 330.82 C73.21 332.11 73.39 333.42 73.45 334.74 C73.45 335.31 73.45 335.82 73.45 336.26 C73.45 336.64 73.42 337.03 73.36 337.41 C73.33 337.73 73.26 338.04 73.14 338.34 Z" id="Path 51" style="fill:#FAFAFA;" />
		<path d="M179.89 308.82 C179.72 308.85 179.55 308.85 179.38 308.82 L177.92 308.76 L176.86 308.7 C176.48 308.7 176.07 308.6 175.62 308.54 C174.61 308.42 173.61 308.25 172.62 308.03 L170.88 307.65 C170.28 307.51 169.66 307.29 169.02 307.11 C167.73 306.76 166.4 306.22 165.02 305.68 C158.96 303.18 153.52 299.38 149.09 294.54 C148.13 293.48 147.23 292.38 146.39 291.23 C146 290.69 145.6 290.18 145.26 289.66 L144.31 288.15 C143.68 287.2 143.25 286.26 142.82 285.47 C142.62 285.06 142.42 284.7 142.26 284.34 C142.1 283.98 141.97 283.67 141.85 283.34 L141.3 281.98 C141.22 281.83 141.17 281.67 141.15 281.5 C141.25 281.64 141.33 281.79 141.4 281.94 L142.03 283.25 L142.48 284.25 C142.65 284.59 142.87 284.95 143.08 285.34 C143.53 286.12 143.98 287.04 144.63 287.96 L145.63 289.44 C145.97 289.95 146.39 290.44 146.78 290.98 C147.55 292.06 148.51 293.1 149.48 294.23 C151.69 296.59 154.12 298.73 156.75 300.61 C159.41 302.45 162.23 304.02 165.19 305.32 C166.58 305.86 167.88 306.42 169.19 306.78 C169.82 306.97 170.43 307.19 171.02 307.34 L172.74 307.75 C173.83 308.05 174.85 308.17 175.74 308.33 C176.18 308.4 176.59 308.49 176.97 308.53 L178.02 308.64 L179.47 308.79 C179.61 308.79 179.75 308.8 179.89 308.82 Z" id="Path 52" style="fill:#263238;" />
		<path d="M89.32 236.74 C89.31 236.83 89.29 236.92 89.26 237.01 L89.04 237.79 C88.83 238.51 88.54 239.5 88.16 240.79 C87.97 241.44 87.75 242.15 87.52 242.93 C87.29 243.71 87.15 244.6 86.94 245.53 C86.73 246.46 86.51 247.46 86.27 248.53 C86.03 249.6 85.92 250.73 85.72 251.91 C85.52 253.09 85.35 254.34 85.16 255.64 C84.97 256.94 84.93 258.3 84.8 259.71 C84.74 260.41 84.68 261.13 84.62 261.85 C84.56 262.57 84.57 263.32 84.54 264.07 C84.54 265.58 84.46 267.07 84.41 268.71 C84.48 275.6 84.98 282.48 85.92 289.3 C86.94 296.11 88.3 302.87 90 309.54 C90.83 312.61 91.56 315.54 92.4 318.24 C92.81 319.59 93.2 320.9 93.58 322.16 C93.96 323.42 94.38 324.6 94.76 325.74 C95.48 328.03 96.23 330.08 96.87 331.87 C97.51 333.66 98.07 335.22 98.56 336.47 C99.05 337.72 99.39 338.67 99.66 339.37 L99.93 340.13 C99.97 340.21 99.99 340.31 100 340.4 C99.95 340.32 99.91 340.24 99.88 340.15 C99.79 339.96 99.69 339.71 99.56 339.41 C99.27 338.72 98.88 337.76 98.37 336.55 C97.86 335.34 97.25 333.77 96.6 331.97 C95.95 330.17 95.16 328.15 94.41 325.86 L93.19 322.28 C92.81 321.02 92.41 319.71 91.99 318.36 C91.12 315.66 90.38 312.73 89.53 309.66 C87.82 302.96 86.46 296.18 85.46 289.34 C84.52 282.49 84.02 275.59 83.98 268.68 C83.98 267.09 84.09 265.53 84.14 264.02 C84.14 263.27 84.14 262.52 84.22 261.79 C84.3 261.06 84.36 260.35 84.42 259.64 Q84.63 257.53 84.81 255.56 L85.41 251.82 C85.62 250.63 85.74 249.49 86 248.44 L86.71 245.44 C86.93 244.51 87.14 243.65 87.33 242.85 L88.02 240.71 C88.43 239.46 88.76 238.48 89.02 237.77 L89.29 237.01 C89.29 236.92 89.3 236.83 89.32 236.74 Z" id="Path 53" style="fill:#263238;" />
		<path d="M140.42 212.06 C140.45 208.28 141.78 204.62 144.19 201.71 C144.32 201.8 142.93 203.87 141.9 206.71 C140.87 209.55 140.58 212.08 140.42 212.06 Z" id="Path 54" style="fill:#263238;" />
		<path d="M124.74 205.93 C125.93 202.64 128.34 199.94 131.48 198.4 C131.57 198.54 129.62 199.77 127.77 201.86 C125.92 203.95 124.88 206.01 124.74 205.93 Z" id="Path 55" style="fill:#263238;" />
		<path d="M158.64 213.54 C158.41 211.82 158.27 210.09 158.23 208.36 C158.01 206.64 157.89 204.91 157.85 203.18 C158.39 204.84 158.7 206.57 158.75 208.32 C158.97 210.06 158.94 211.82 158.64 213.54 Z" id="Path 56" style="fill:#263238;" />
		<path d="M179.63 211.23 C179.85 207.29 178.55 203.42 176 200.42 C176 200.37 176.59 200.77 177.3 201.6 C178.21 202.7 178.9 203.96 179.36 205.31 C179.83 206.67 180.05 208.1 180 209.54 C180 210.12 179.87 210.7 179.63 211.23 Z" id="Path 57" style="fill:#263238;" />
		<g opacity="0.3">
			<path d="M187 196.69 L181.66 198.47 C184.72 216.47 188.66 238.1 191.76 256.1 C192.66 261.37 193.64 266.85 196.76 271.18 C200.07 275.74 205.58 278.73 207.61 283.98 C201.21 255.48 194.64 224.87 187 196.69 Z" id="Path 58" style="fill:#000000;" />
		</g>
		<path d="M90.51 139.87 C90.51 139.87 90.67 135.19 90.58 131.03 C90.56 130.2 90.88 129.4 91.47 128.8 C92.05 128.21 92.85 127.88 93.68 127.88 L128 127.88 L133.71 116.04 C134.82 114.31 136.73 113.27 138.78 113.28 L154.51 113.28 C156.44 113.28 158.26 114.2 159.39 115.77 L165.45 124.14 L176.61 126 C178.62 126.34 180.13 128.03 180.22 130.07 L182.31 177.7 L90.51 177.7 L90.51 139.87 Z" id="Path 59" style="fill:#FEB262;" />
		<rect x="139.75" y="115.72" width="12.56" height="5.94" id="Rectangle" style="fill:#E0E0E0;" />
		<ellipse cx="144.42" cy="149.34" rx="20.05" ry="20.05" id="Ellipse" style="fill:#FEB262;" />
		<ellipse cx="144.42" cy="149.34" rx="20.05" ry="20.05" id="Ellipse 1" opacity="0.6" style="fill:#000000;" />
		<ellipse cx="144.42" cy="149.34" rx="16.05" ry="16.05" id="Ellipse 2" style="fill:#263238;" />
		<path d="M166 149.34 C165.99 149.22 165.99 149.11 166 148.99 L165.92 147.99 C165.92 147.76 165.92 147.51 165.92 147.24 C165.92 146.97 165.83 146.66 165.78 146.34 C165.68 145.59 165.52 144.85 165.32 144.12 C164.81 142.11 164 140.2 162.92 138.43 C157.66 129.65 146.91 125.84 137.29 129.35 C136.34 129.69 135.41 130.1 134.51 130.57 C133.6 131.07 132.73 131.63 131.9 132.25 C131.05 132.88 130.25 133.57 129.49 134.3 C128.74 135.08 128.04 135.9 127.4 136.77 C126.09 138.56 125.08 140.54 124.4 142.64 C122.93 147 122.93 151.71 124.4 156.07 C125.08 158.18 126.09 160.16 127.4 161.94 C128.04 162.81 128.74 163.64 129.49 164.41 C130.25 165.15 131.05 165.83 131.9 166.46 C133.53 167.7 135.35 168.69 137.29 169.37 C146.91 172.86 157.65 169.05 162.92 160.28 C164 158.51 164.81 156.6 165.32 154.59 C165.52 153.86 165.68 153.13 165.78 152.38 C165.83 152.05 165.89 151.75 165.92 151.48 C165.95 151.21 165.92 150.95 165.92 150.73 C165.92 150.3 165.98 149.96 166 149.73 C165.99 149.61 165.99 149.5 166 149.38 C166.01 149.5 166.01 149.61 166 149.73 C166 149.99 166 150.32 166 150.73 C166 150.96 166 151.22 166 151.49 C166 151.76 165.92 152.07 165.88 152.4 C165.8 153.16 165.66 153.9 165.47 154.64 C164.99 156.68 164.2 158.63 163.12 160.43 C159.96 165.8 154.63 169.56 148.51 170.73 C144.69 171.46 140.74 171.14 137.08 169.82 C136.1 169.47 135.15 169.06 134.23 168.58 C133.3 168.07 132.4 167.5 131.55 166.86 C130.68 166.22 129.86 165.52 129.08 164.77 C128.31 163.98 127.59 163.13 126.94 162.24 C125.58 160.42 124.53 158.4 123.82 156.24 C122.31 151.78 122.31 146.94 123.82 142.48 C124.53 140.32 125.58 138.3 126.94 136.48 C128.22 134.7 129.78 133.14 131.56 131.86 C133.23 130.59 135.09 129.59 137.08 128.91 C140.74 127.59 144.69 127.27 148.51 127.99 C154.58 129.2 159.85 132.93 163 138.26 C164.07 140.06 164.87 142.01 165.35 144.05 C165.54 144.79 165.68 145.54 165.76 146.3 C165.76 146.62 165.86 146.93 165.88 147.2 C165.9 147.47 165.88 147.73 165.88 147.96 C165.88 148.39 165.88 148.73 165.88 148.96 C165.93 149.08 165.97 149.21 166 149.34 Z" id="Path 60" style="fill:#263238;" />
		<path d="M138.73 160.44 C138.62 160.72 136.67 160.29 134.49 158.06 C133.23 156.75 132.27 155.18 131.65 153.47 C130.02 149.13 130.88 144.24 133.91 140.72 C135.07 139.32 136.52 138.18 138.15 137.38 C140.96 136.03 142.94 136.29 142.95 136.59 C142.96 136.89 141.27 137.41 139.08 138.96 C137.82 139.86 136.71 140.95 135.79 142.2 C133.53 145.21 132.83 149.12 133.93 152.72 C134.37 154.21 135.04 155.62 135.93 156.89 C137.44 159.1 138.94 160.09 138.73 160.44 Z" id="Path 61" style="fill:#E0E0E0;" />
		<path d="M127.16 130.54 C126.77 130.79 126.35 131 125.91 131.16 C125.42 131.39 124.91 131.59 124.4 131.77 C123.81 131.99 123.13 132.25 122.4 132.46 C120.61 133.01 118.78 133.45 116.93 133.75 C114.66 134.11 112.37 134.31 110.07 134.35 C107.77 134.35 105.48 134.2 103.2 133.89 C101.34 133.62 99.5 133.23 97.7 132.71 C97 132.53 96.32 132.31 95.64 132.06 C95.12 131.9 94.62 131.71 94.12 131.49 C93.68 131.34 93.26 131.15 92.86 130.91 C93.32 131 93.76 131.13 94.19 131.3 C94.61 131.45 95.12 131.62 95.73 131.79 C96.34 131.96 97.02 132.19 97.8 132.36 C99.6 132.82 101.42 133.17 103.26 133.41 C107.77 134 112.35 133.96 116.85 133.28 C118.69 133 120.51 132.61 122.3 132.11 C123.07 131.92 123.75 131.68 124.35 131.49 C124.95 131.3 125.46 131.13 125.88 130.97 C126.29 130.79 126.72 130.64 127.16 130.54 Z" id="Path 62" style="fill:#263238;" />
		<path d="M127.08 167.54 C127.17 167.8 127.24 168.06 127.27 168.33 C127.4 169.11 127.36 169.91 127.18 170.68 C126.9 171.91 126.3 173.05 125.44 173.97 C124.27 175.19 122.7 175.94 121.02 176.09 C119.18 176.34 117.18 176.09 115.02 176.22 C112.86 176.35 110.63 176.58 108.23 176.73 C105.7 176.98 103.15 176.81 100.67 176.24 C97.95 175.63 95.55 174.07 93.88 171.84 C93.1 170.66 92.59 169.33 92.37 167.94 C92.16 166.62 92.05 165.28 92.05 163.94 C92.05 161.33 91.95 158.81 91.9 156.41 C91.81 151.62 91.74 147.3 91.68 143.66 C91.62 140.02 91.6 137.14 91.57 135.06 L91.57 132.72 C91.54 132.45 91.54 132.17 91.57 131.9 C91.62 132.17 91.64 132.45 91.64 132.72 C91.64 133.3 91.7 134.08 91.74 135.05 C91.81 137.14 91.9 140.05 92.01 143.65 C92.12 147.25 92.22 151.65 92.35 156.4 C92.41 158.8 92.47 161.32 92.53 163.93 C92.59 166.54 92.74 169.3 94.28 171.55 C95.87 173.69 98.17 175.18 100.77 175.75 C103.19 176.32 105.69 176.49 108.17 176.26 C110.55 176.12 112.83 175.86 114.97 175.8 C117.11 175.74 119.11 175.96 120.89 175.74 C122.5 175.61 124.02 174.9 125.15 173.74 C126 172.87 126.6 171.79 126.9 170.61 C127.1 169.86 127.16 169.09 127.09 168.32 C127.07 168.06 127.07 167.8 127.08 167.54 Z" id="Path 63" style="fill:#263238;" />
		<path d="M109.25 169.59 C109.1 169.59 108.99 162.75 108.99 154.31 C108.99 145.87 109.1 139.04 109.25 139.04 C109.4 139.04 109.51 145.88 109.51 154.31 C109.51 162.74 109.39 169.59 109.25 169.59 Z" id="Path 64" style="fill:#263238;" />
		<path d="M102.48 169.59 C102.33 169.59 102.22 162.75 102.22 154.31 C102.22 145.87 102.33 139.04 102.48 139.04 C102.63 139.04 102.74 145.88 102.74 154.31 C102.74 162.74 102.62 169.59 102.48 169.59 Z" id="Path 65" style="fill:#263238;" />
		<path d="M114.73 169.02 C114.58 169.02 114.47 162.27 114.47 153.96 C114.47 145.65 114.58 138.9 114.73 138.9 C114.88 138.9 114.99 145.64 114.99 153.96 C114.99 162.28 114.87 169.02 114.73 169.02 Z" id="Path 66" style="fill:#263238;" />
		<path d="M179.91 133.54 C179.91 133.54 179.85 133.22 179.61 132.73 C179.23 132.05 178.65 131.52 177.94 131.2 C176.85 130.78 175.69 130.59 174.52 130.65 L170.15 130.53 C167.05 130.43 164.25 130.31 162.22 130.19 C161.12 130.19 160.02 130.09 158.94 129.9 C160.03 129.79 161.13 129.77 162.23 129.83 C164.23 129.83 167.07 129.91 170.17 130.01 L174.54 130.17 C175.76 130.14 176.98 130.38 178.1 130.87 C178.86 131.24 179.46 131.87 179.79 132.65 C180 133.22 179.94 133.54 179.91 133.54 Z" id="Path 67" style="fill:#263238;" />
		<path d="M64.98 170.45 L40.64 226.2 L75.02 246.62 L85.31 184.2 L64.98 170.45 Z" id="Path 68" style="fill:#FFBE9D;" />
		<path d="M64.85 145.09 L82.05 119.18 C84.02 116.24 87.77 115.08 91.05 116.39 L109.31 123.78 C109.31 123.78 109.07 129.46 104.11 128.7 C99.15 127.94 89 125.97 89 125.97 L84.44 131.48 L64.85 145.09 Z" id="Path 69" style="fill:#FFBE9D;" />
		<path d="M109.58 153.33 L102.06 133.79 C101.14 131.39 98.72 129.92 96.17 130.2 L73.07 132.72 L64.85 145.09 C64.3 145.92 64.02 146.91 64.06 147.91 L65.4 180.85 L79.4 198.22 L85.5 184.22 L85.5 184.22 C89.65 182.28 91.85 177.67 90.73 173.22 L88.91 166.04 L96.01 163.62 C96.01 163.62 95.38 171.47 98.89 171.37 C102.4 171.27 104.2 157.54 104.2 157.54 C104.2 157.54 110.72 156.28 109.58 153.33 Z" id="Path 70" style="fill:#FFBE9D;" />
		<path d="M88.92 166.04 C88.92 166.04 88.69 165.88 88.37 165.5 C87.9 164.96 87.58 164.3 87.46 163.59 C87.4 163.08 87.48 162.56 87.69 162.09 C87.94 161.55 88.32 161.1 88.81 160.76 C89.86 160.02 91.01 159.45 92.23 159.06 L92.31 159.06 L92.39 159.57 C89.75 159.57 87.39 159.5 85.63 159.44 C84.69 159.46 83.76 159.39 82.83 159.24 C83.76 159.09 84.69 159.03 85.63 159.07 C87.36 159.07 89.75 159.07 92.4 159.07 L94 159.07 L92.51 159.57 L92.43 159.57 C91.26 159.95 90.15 160.49 89.13 161.17 C88.3 161.68 87.82 162.6 87.86 163.57 C87.95 164.23 88.2 164.86 88.58 165.4 C88.8 165.79 89 166.02 88.92 166.04 Z" id="Path 71" style="fill:#EB996E;" />
		<path d="M96 163.62 C96 163.62 96.39 163.36 97 162.8 C97.36 162.45 97.65 162.05 97.86 161.6 C98.12 160.99 98.27 160.35 98.31 159.69 C98.43 157.95 98.34 156.21 98.05 154.49 C97.88 153.48 97.66 152.48 97.39 151.49 C97.16 150.45 96.57 149.52 95.72 148.87 C94.77 148.37 93.71 148.16 92.64 148.24 L89.53 148.09 L84.26 147.81 L80.7 147.57 C80.26 147.56 79.83 147.51 79.4 147.41 C79.84 147.37 80.27 147.37 80.71 147.41 L84.27 147.48 L89.55 147.65 L92.66 147.77 C93.2 147.77 93.75 147.77 94.33 147.87 C94.94 147.92 95.52 148.14 96.02 148.49 C96.97 149.21 97.63 150.24 97.88 151.4 C98.15 152.41 98.36 153.44 98.52 154.47 C98.8 156.23 98.85 158.02 98.67 159.79 C98.61 160.48 98.42 161.16 98.12 161.79 C97.87 162.26 97.53 162.67 97.12 163.01 C96.87 163.22 96.59 163.4 96.3 163.55 C96.2 163.59 96.1 163.61 96 163.62 Z" id="Path 72" style="fill:#EB996E;" />
		<path d="M79.62 140.79 C80.13 140.75 80.63 140.75 81.14 140.79 L85.27 140.86 L91.41 141.03 L95.04 141.15 C95.67 141.15 96.3 141.15 96.96 141.24 C97.66 141.28 98.34 141.47 98.96 141.81 C99.55 142.2 100.04 142.72 100.38 143.33 C100.73 143.9 101.01 144.47 101.3 145.04 C101.85 146.12 102.34 147.24 102.75 148.38 C103.48 150.31 103.95 152.33 104.16 154.38 C104.3 155.76 104.28 157.15 104.11 158.53 C104.07 158.91 104.01 159.28 103.93 159.65 C103.93 159.9 103.84 160.03 103.82 160.03 C103.99 158.16 103.99 156.29 103.82 154.42 C103.57 152.4 103.07 150.42 102.33 148.53 C101.91 147.41 101.42 146.32 100.88 145.25 C100.43 144.08 99.68 143.05 98.72 142.25 C97.56 141.77 96.3 141.57 95.05 141.65 L91.43 141.5 L85.3 141.22 L81.17 140.98 C80.65 140.97 80.13 140.9 79.62 140.79 Z" id="Path 73" style="fill:#EB996E;" />
		<path d="M94.18 141.23 C94.09 139.49 94.36 137.75 94.96 136.12 C95.09 136.99 95.05 137.87 94.83 138.72 C94.78 139.59 94.56 140.44 94.18 141.23 Z" id="Path 74" style="fill:#EB996E;" />
		<path d="M97.39 130.17 C97.09 130.28 96.78 130.35 96.46 130.39 C95.86 130.5 94.98 130.64 93.9 130.78 C91.72 131.08 88.71 131.34 85.41 131.78 C84.59 131.89 83.77 131.98 83.01 132.11 C82.28 132.24 81.55 132.41 80.84 132.63 C79.62 132.96 78.44 133.43 77.34 134.04 C76.35 134.66 75.52 135.5 74.89 136.48 C74.96 136.16 75.09 135.86 75.28 135.59 C75.77 134.85 76.4 134.22 77.14 133.73 C78.25 133.06 79.45 132.53 80.7 132.17 C81.43 131.94 82.17 131.75 82.92 131.61 C83.71 131.46 84.52 131.37 85.35 131.27 C88.67 130.85 91.68 130.65 93.86 130.45 C95.03 130.28 96.21 130.18 97.39 130.17 Z" id="Path 75" style="fill:#EB996E;" />
		<path d="M88.08 122.27 C88.22 122.27 88.42 123.06 88.66 124.05 C88.9 125.04 89.1 125.85 88.96 125.9 C88.82 125.95 88.41 125.2 88.16 124.17 C87.91 123.14 87.94 122.28 88.08 122.27 Z" id="Path 76" style="fill:#EB996E;" />
		<path d="M95.25 118.08 C95.63 118.15 96 118.26 96.35 118.41 C97.06 118.65 98.08 119.02 99.35 119.52 C101.91 120.52 105.5 121.99 109.66 123.78 L109.81 123.84 L109.81 124 C109.82 125.36 109.3 126.66 108.35 127.63 C107.3 128.63 105.86 129.12 104.42 128.97 C102.86 128.9 101.42 128.54 100.01 128.35 C98.6 128.16 97.22 127.91 95.91 127.68 C94.6 127.45 93.36 127.19 92.2 126.9 L88.96 126.16 L89.15 126.09 L85.52 130.41 C85.11 130.87 84.78 131.25 84.52 131.57 C84.41 131.71 84.28 131.84 84.14 131.95 C84.14 131.95 84.22 131.78 84.43 131.5 L85.36 130.27 L88.86 125.85 L88.93 125.76 L89.05 125.76 L92.31 126.45 C93.46 126.72 94.7 126.96 96 127.18 L100.09 127.83 C101.52 128.01 102.98 128.37 104.45 128.43 C105.75 128.57 107.05 128.14 108 127.25 C108.85 126.38 109.33 125.21 109.33 123.99 L109.48 124.21 C105.34 122.38 101.77 120.85 99.25 119.78 L96.25 118.54 C95.91 118.41 95.57 118.26 95.25 118.08 Z" id="Path 77" style="fill:#EB996E;" />
		<path d="M245 248.97 L214 185.15 L181.53 134.38 C178.6 129.81 173.88 126.68 168.53 125.77 C160.53 124.42 149.12 122.89 144.74 124.23 C140.05 125.66 143.43 128.91 143.43 128.91 C143.43 128.91 148.65 129.98 155.43 131.24 C158.41 131.79 161.02 133.57 162.61 136.14 L164.17 138.65 C167.82 144.54 168.23 149.01 169.09 158.1 L169.09 163 C168.25 167.47 160.95 170.44 154.09 170.61 C150.16 170.71 146.25 171.12 142.38 171.82 L144 171.82 C139.18 171.52 134.44 173.16 130.84 176.39 C129.88 177.18 129.14 178.19 128.66 179.33 C128.19 180.5 128.35 181.82 129.09 182.84 C130.2 183.94 131.83 184.33 133.32 183.84 C134.77 183.34 136.17 182.73 137.53 182.03 C142.74 179.85 148.71 181.23 154.07 183.03 C159.43 184.83 164.93 186.98 170.54 186.29 C173.95 185.87 177.82 184.5 180.54 186.6 L183.78 189.66 C185.51 192.26 186.65 195.21 187.13 198.3 L187.13 198.3 L208.2 286.9 C215.76 288.13 223.56 287.23 232.39 280.3 C240.67 271.39 245.63 259.64 245 248.97 Z" id="Path 78" style="fill:#FFBE9D;" />
		<path d="M174.48 144.8 C174.48 144.8 173.19 131.56 172.48 130.39 C171.77 129.22 157.55 123.13 158.79 121.19 C160.03 119.25 163.79 120.86 166.62 122.19 C169.45 123.52 176.92 126.81 178.69 128.83 C180.46 130.85 183.35 142.88 183.35 142.88 L174.48 144.8 Z" id="Path 79" style="fill:#FFBE9D;" />
		<path d="M158.82 121.19 C158.82 121.19 158.93 121.25 159.12 121.41 L159.92 122.1 L162.92 124.8 L162.92 124.8 C164.76 125.8 167.11 127.04 169.82 128.56 L171.91 129.77 C172.09 129.88 172.27 129.98 172.45 130.11 C172.66 130.23 172.84 130.42 172.95 130.64 C173.15 131.05 173.29 131.48 173.37 131.93 C173.7 133.76 173.89 135.61 173.93 137.47 L173.93 137.41 C174.87 140.65 175.79 144.22 176.68 147.94 C178.87 157.27 180.55 165.86 180.63 172.17 C180.69 174.64 181.28 177.06 182.36 179.28 C182.81 180.07 183.33 180.81 183.92 181.49 L183.78 181.39 C183.65 181.28 183.52 181.15 183.4 181.02 C182.93 180.52 182.52 179.97 182.18 179.38 C181.01 177.16 180.36 174.71 180.27 172.2 C180.09 165.9 178.36 157.39 176.17 148.06 C175.29 144.35 174.38 140.78 173.45 137.54 L173.45 137.48 C173.42 135.65 173.25 133.83 172.94 132.03 C172.87 131.62 172.75 131.23 172.58 130.85 C172.46 130.55 172.04 130.37 171.7 130.14 L169.63 128.92 L162.81 125.04 L162.81 125.04 L159.87 122.25 L159.11 121.5 C159 121.41 158.9 121.31 158.82 121.19 Z" id="Path 80" style="fill:#EB996E;" />
		<path d="M168.32 143.24 C168.38 143.65 168.4 144.06 168.37 144.47 C168.37 145.26 168.37 146.4 168.37 147.8 C168.4 149.44 168.57 151.07 168.88 152.68 C169.25 154.64 170.04 156.5 171.18 158.13 C172.44 159.69 173.81 161.16 175.28 162.53 C176.61 163.84 177.85 164.97 178.8 166.05 C179.25 166.53 179.58 167.12 179.75 167.76 C179.85 168.24 179.89 168.73 179.88 169.22 C179.93 169.63 179.93 170.03 179.88 170.44 C179.79 170.04 179.74 169.64 179.73 169.23 C179.7 168.76 179.63 168.29 179.52 167.83 C179.33 167.25 179 166.72 178.57 166.29 C177.57 165.29 176.35 164.17 175 162.88 C173.49 161.51 172.09 160.03 170.81 158.44 C169.63 156.74 168.83 154.81 168.46 152.78 C168.17 151.13 168.03 149.46 168.05 147.78 C168.05 146.36 168.13 145.22 168.2 144.43 C168.2 144.03 168.24 143.63 168.32 143.24 Z" id="Path 81" style="fill:#EB996E;" />
		<path d="M145.65 177.11 C145.64 176.37 145.55 175.64 145.36 174.93 C144.95 173.8 144.07 173.24 144.15 173.11 C144.23 172.98 144.45 173.11 144.82 173.37 C145.77 174.09 146.23 175.3 145.99 176.47 C145.88 176.91 145.71 177.13 145.65 177.11 Z" id="Path 82" style="fill:#EB996E;" />
		<path d="M169.05 165.16 C169.05 165.16 168.93 165.39 168.64 165.74 C168.22 166.23 167.76 166.69 167.26 167.11 C165.63 168.51 163.76 169.6 161.73 170.32 C159.7 171.04 157.56 171.37 155.41 171.32 C154.76 171.31 154.12 171.24 153.48 171.13 C153.24 171.11 153.01 171.04 152.79 170.94 C152.79 170.85 153.79 170.99 155.42 170.94 C159.62 170.85 163.68 169.41 167 166.83 C168.3 165.84 169 165.1 169.05 165.16 Z" id="Path 83" style="fill:#EB996E;" />
		<path d="M172.61 147.04 C172.26 146.65 171.95 146.22 171.68 145.77 L169.28 142.2 L165.79 136.86 L163.74 133.7 C163.11 132.54 162.3 131.49 161.34 130.58 C160.24 129.88 158.93 129.58 157.64 129.73 C156.35 129.73 155.07 129.79 153.86 129.73 C151.72 129.61 149.6 129.31 147.52 128.83 C146.12 128.5 144.74 128.08 143.39 127.57 Q142.67 127.3 142.31 127.12 C142.06 127.01 141.94 126.95 141.95 126.93 C142.46 127.05 142.97 127.2 143.46 127.38 C144.46 127.68 145.83 128.1 147.6 128.47 C149.67 128.9 151.77 129.16 153.88 129.25 C155.08 129.3 156.32 129.25 157.63 129.25 C159.03 129.1 160.44 129.44 161.63 130.2 C162.64 131.14 163.49 132.24 164.14 133.45 C164.84 134.55 165.52 135.61 166.14 136.63 C167.41 138.63 168.56 140.46 169.54 142.03 L171.8 145.69 C172.11 146.12 172.38 146.57 172.61 147.04 Z" id="Path 84" style="fill:#EB996E;" />
		<path d="M194.6 228.54 C194.6 228.54 194.53 228.35 194.43 227.95 C194.33 227.55 194.17 226.95 193.96 226.2 C193.56 224.64 192.96 222.36 192.22 219.4 C190.71 213.4 188.52 204.78 185.77 193.89 L185.77 193.89 C185.3 192.48 184.63 191.15 183.77 189.94 C182.86 188.67 181.68 187.62 180.33 186.84 L180.33 186.84 C179.84 186.49 179.29 186.21 178.72 186.02 C178.12 185.85 177.5 185.76 176.88 185.75 C175.58 185.77 174.28 185.91 173.01 186.17 C171.67 186.44 170.31 186.62 168.95 186.7 C167.54 186.75 166.12 186.65 164.73 186.42 C161.84 185.89 159 185.12 156.24 184.12 C153.36 183.06 150.39 182.22 147.38 181.63 C144.24 180.98 140.99 181.18 137.95 182.21 C136.43 182.75 135.03 183.72 133.35 184.21 C132.49 184.45 131.59 184.47 130.72 184.29 C129.81 184.11 129.01 183.55 128.53 182.76 C128.08 181.95 127.95 181 128.14 180.09 C128.33 179.2 128.74 178.37 129.33 177.68 C130.49 176.32 131.88 175.16 133.43 174.26 C136.59 172.38 140.24 171.5 143.91 171.73 L143.91 172.24 L142.29 172.24 L142.29 171.74 C143.72 171.56 145.29 171.21 146.79 171.04 C148.29 170.87 149.87 170.71 151.44 170.62 C153.01 170.53 154.58 170.55 156.12 170.37 C157.69 170.2 159.23 169.89 160.74 169.44 C162.27 169 163.73 168.36 165.09 167.55 C166.47 166.78 167.6 165.63 168.34 164.23 C168.5 163.88 168.62 163.51 168.71 163.14 L168.71 158.29 L168.6 157.06 L168.35 154.59 C168.11 151.12 167.48 147.69 166.45 144.36 C165.22 141.18 163.57 138.18 161.56 135.43 C160.53 134.14 159.2 133.11 157.69 132.43 C156.15 131.84 154.54 131.43 152.9 131.21 L143.22 129.34 L143.14 129.34 L143.09 129.29 C142.68 128.89 142.34 128.42 142.09 127.91 C141.82 127.38 141.75 126.78 141.89 126.2 C142.07 125.59 142.46 125.07 143 124.74 C143.24 124.59 143.49 124.47 143.73 124.35 L144.5 124.07 C146.55 123.6 148.66 123.43 150.76 123.56 C154.78 123.74 158.78 124.13 162.76 124.74 L162.6 125.18 C161.29 124.47 160.07 123.6 158.96 122.6 C158.64 122.32 158.44 121.93 158.39 121.51 C158.39 121.38 158.43 121.24 158.5 121.13 L158.69 120.89 C158.82 120.73 158.98 120.6 159.15 120.49 C159.85 120.15 160.64 120.05 161.4 120.2 C162.81 120.48 164.18 120.93 165.47 121.56 L169.24 123.32 C171.69 124.43 174.09 125.66 176.41 127.02 C176.98 127.36 177.52 127.74 178.04 128.15 C178.3 128.36 178.55 128.59 178.78 128.84 C178.99 129.1 179.16 129.39 179.31 129.69 C179.86 130.84 180.33 132.03 180.72 133.24 L180.72 133.24 C181.43 134.24 182.05 135.18 182.72 136.15 L184.55 139.03 L188 144.54 L194.48 154.72 L204.91 171.12 L211.55 181.54 L213.27 184.28 C213.65 184.9 213.83 185.22 213.83 185.22 C213.83 185.22 213.61 184.92 213.21 184.31 C212.81 183.7 212.21 182.78 211.45 181.61 L204.74 171.22 L194.23 154.88 L187.71 144.72 L184.16 139.19 L182.32 136.32 C181.7 135.32 181.08 134.32 180.38 133.43 L180.38 133.43 L180.38 133.43 C180 132.24 179.53 131.07 178.99 129.94 C178.85 129.67 178.69 129.41 178.5 129.17 C178.29 128.94 178.07 128.73 177.82 128.54 C177.32 128.14 176.79 127.78 176.24 127.45 C173.92 126.11 171.54 124.88 169.1 123.78 L165.33 122.04 C164.08 121.43 162.75 120.99 161.38 120.72 C160.73 120.58 160.04 120.66 159.44 120.95 C159.33 121.06 159.17 121.12 159.09 121.26 L158.94 121.44 C158.93 121.49 158.93 121.53 158.94 121.58 C158.94 121.8 159.17 122.1 159.39 122.34 C160.47 123.3 161.66 124.14 162.93 124.83 L163.93 125.43 L162.78 125.27 C158.8 124.67 154.8 124.28 150.78 124.11 C148.73 123.99 146.67 124.15 144.67 124.6 C143.7 124.77 142.87 125.4 142.44 126.28 C142.33 127.25 142.7 128.22 143.44 128.87 L143.32 128.8 L153 130.67 L155.46 131.14 C156.3 131.31 157.12 131.57 157.9 131.92 C159.49 132.64 160.88 133.72 161.97 135.08 C162.49 135.77 162.96 136.49 163.4 137.24 C163.85 137.96 164.3 138.68 164.74 139.43 C165.63 140.93 166.37 142.51 166.94 144.16 C167.98 147.52 168.63 150.99 168.87 154.5 L169.11 156.98 L169.23 158.21 L169.23 163.21 C169.14 163.63 169 164.04 168.82 164.43 C168.04 165.92 166.84 167.15 165.37 167.97 C163.97 168.81 162.47 169.46 160.9 169.92 C159.36 170.37 157.79 170.69 156.19 170.86 C154.6 171.05 153.02 171.01 151.48 171.11 C149.94 171.21 148.39 171.33 146.87 171.53 C145.35 171.73 143.87 172.03 142.32 172.22 L142.32 171.72 L143.93 171.72 L143.93 172.23 C140.36 172 136.81 172.86 133.73 174.68 C132.22 175.54 130.87 176.66 129.73 177.97 C129.2 178.61 128.82 179.37 128.63 180.18 C128.46 180.97 128.58 181.8 128.96 182.51 C129.38 183.19 130.07 183.66 130.85 183.81 C131.64 183.98 132.46 183.96 133.24 183.74 C134.83 183.32 136.24 182.36 137.81 181.79 C140.92 180.73 144.26 180.53 147.47 181.21 C150.51 181.81 153.49 182.65 156.39 183.73 C159.13 184.73 161.94 185.5 164.81 186.04 C166.18 186.27 167.56 186.36 168.95 186.32 C170.29 186.25 171.63 186.08 172.95 185.81 C174.25 185.55 175.57 185.41 176.9 185.4 C177.55 185.42 178.2 185.51 178.83 185.69 C179.45 185.89 180.04 186.19 180.56 186.58 L180.56 186.58 C181.95 187.39 183.16 188.49 184.1 189.8 C184.96 191.03 185.63 192.38 186.1 193.8 L186.1 193.8 L192.4 219.34 L194.06 226.17 C194.24 226.94 194.38 227.52 194.48 227.93 C194.58 228.34 194.6 228.54 194.6 228.54 Z" id="Path 85" style="fill:#EB996E;" />
	</g>
</svg>37 202.97 291.94 204.62 C292.98 207.98 293.63 211.45 293.87 214.96 L294.11 217.44 L294.23 218.67 L294.23 223.67 C294.14 224.09 294 224.5 293.82 224.89 C293.04 226.38 291.84 227.61 290.37 228.43 C288.97 229.27 287.47 229.92 285.9 230.38 C284.36 230.83 282.79 231.15 281.19 231.32 C279.6 231.51 278.02 231.47 276.48 231.57 C274.94 231.67 273.39 231.79 271.87 231.99 C270.35 232.19 268.87 232.49 267.32 232.68 L267.32 232.18 L268.93 232.18 L268.93 232.69 C265.36 232.46 261.81 233.32 258.73 235.14 C257.22 236 255.87 237.12 254.73 238.43 C254.2 239.07 253.82 239.83 253.63 240.64 C253.46 241.43 253.58 242.26 253.96 242.97 C254.38 243.65 255.07 244.12 255.85 244.27 C256.64 244.44 257.46 244.42 258.24 244.2 C259.83 243.78 261.24 242.82 262.81 242.25 C265.92 241.19 269.26 240.99 272.47 241.67 C275.51 242.27 278.49 243.11 281.39 244.19 C284.13 245.19 286.94 245.96 289.81 246.5 C291.18 246.73 292.56 246.82 293.95 246.78 C295.29 246.71 296.63 246.54 297.95 246.27 C299.25 246.01 300.57 245.87 301.9 245.86 C302.55 245.88 303.2 245.97 303.83 246.15 C304.45 246.35 305.04 246.65 305.56 247.04 L305.56 247.04 C306.95 247.85 308.16 248.95 309.1 250.26 C309.96 251.49 310.63 252.84 311.1 254.26 L311.1 254.26 L317.4 279.8 L319.06 286.63 C319.24 287.4 319.38 287.98 319.48 288.39 C319.58 288.8 319.6 289 319.6 289 Z" id="Path 85" style="fill:#EB996E;" />
	</g>
</svg>